<svg id="Capa_1" enable-background="new 0 0 512 512" height="512" viewBox="0 0 512 512" width="512" xmlns="http://www.w3.org/2000/svg"><g><g><path d="m405.353 122.915c-1.268 0-2.553-.323-3.73-1.002l-145.623-84.075-145.623 84.075c-3.574 2.063-8.145.84-10.209-2.735-2.064-3.574-.839-8.145 2.735-10.209l149.36-86.233c2.312-1.335 5.161-1.335 7.474 0l149.36 86.233c3.575 2.064 4.799 6.635 2.735 10.209-1.384 2.397-3.896 3.737-6.479 3.737z" fill="#407093"/></g><g><path d="m20.55 104.671h470.899v281.058h-470.899z" fill="#f9f6f9"/></g><path d="m166.154 144.442c-1.466 0-4.373 4.829-4.373 4.829v44.578s2.894 4.089 4.373 4.089c21.589 0 39.152 17.564 39.152 39.152 0 21.589-17.564 39.152-39.152 39.152-13.766 0-25.895-7.143-32.877-17.916-.559-.863-5.386-.915-5.386-.915l-38.968 25.571s-1.178 3.418-.567 4.36c16.523 25.493 45.222 42.396 77.798 42.396 51.087 0 92.649-41.562 92.649-92.649 0-51.085-41.562-92.647-92.649-92.647z" fill="#407093"/><path d="m302.704 184.568c-.171 1.592-3.264 3.206-3.264 4.843 0 24.765 20.076 44.841 44.841 44.841s44.841-20.076 44.841-44.841c0-1.637-3.093-3.251-3.264-4.843z" fill="#407093"/><g><circle cx="256" cy="31.041" fill="#d0cee7" r="18.497"/></g><g><path d="m259.639 12.906c.83 2.103 1.301 4.387 1.301 6.784 0 10.216-8.281 18.497-18.497 18.497-1.246 0-2.462-.127-3.638-.362 2.707 6.855 9.378 11.713 17.195 11.713 10.216 0 18.497-8.281 18.497-18.497 0-8.97-6.386-16.444-14.858-18.135z" fill="#beb9dd"/></g><g><path d="m455.717 104.671v212.695c0 9.064-7.348 16.412-16.412 16.412h-418.755v51.952h470.9v-281.059z" fill="#dddaec"/></g><path d="m263.474 452.348v-53.411h-14.947v53.411c-9.668 3.155-16.675 12.251-16.675 22.959 0 13.316 10.833 24.149 24.149 24.149s24.149-10.833 24.149-24.149c-.001-10.708-7.009-19.804-16.676-22.959zm-7.474 32.161c-5.074 0-9.202-4.128-9.202-9.202s4.128-9.202 9.202-9.202 9.202 4.128 9.202 9.202-4.128 9.202-9.202 9.202z" fill="#ce9875"/><g><path d="m506.097 411.793h-500.194c-2.761 0-5-2.239-5-5v-32.283c0-2.761 2.239-5 5-5h500.194c2.761 0 5 2.239 5 5v32.283c0 2.762-2.239 5-5 5z" fill="#ce9875"/></g><g><path d="m506.115 369.51h-15.553v16.765c0 2.752-2.231 4.982-4.982 4.982h-484.677v15.553c0 2.752 2.231 4.982 4.982 4.982h500.229c2.752 0 4.982-2.231 4.982-4.982v-32.318c.001-2.751-2.23-4.982-4.981-4.982z" fill="#c6865c"/></g><g><path d="m504.526 112.145h-497.052c-4.127 0-7.474-3.346-7.474-7.474s3.346-7.474 7.474-7.474h497.053c4.127 0 7.474 3.346 7.474 7.474-.001 4.128-3.347 7.474-7.475 7.474z" fill="#ce9875"/></g><g><g><path d="m222.528 163.621c12.02 15.628 19.179 35.179 19.179 56.374 0 51.087-41.562 92.649-92.649 92.649-21.195 0-40.746-7.159-56.374-19.179 16.952 22.041 43.578 36.274 73.47 36.274 51.087 0 92.649-41.562 92.649-92.649 0-29.891-14.234-56.517-36.275-73.469z" fill="#365e7d"/></g></g><g><path d="m429.48 288.983h-80.714c-4.127 0-7.474-3.346-7.474-7.474s3.346-7.474 7.474-7.474h80.714c4.128 0 7.474 3.346 7.474 7.474-.001 4.128-3.347 7.474-7.474 7.474z" fill="#beb9dd"/></g><g><circle cx="311.795" cy="281.509" fill="#beb9dd" r="12.355"/></g><g><path d="m429.48 327.098h-80.714c-4.127 0-7.474-3.346-7.474-7.474s3.346-7.474 7.474-7.474h80.714c4.128 0 7.474 3.346 7.474 7.474s-3.347 7.474-7.474 7.474z" fill="#beb9dd"/></g><g><circle cx="311.795" cy="319.624" fill="#beb9dd" r="12.355"/></g><g><path d="m344.281 144.57c-24.765 0-44.841 20.076-44.841 44.841h89.683c0-8.169-11.957-11.756-15.774-18.352-4.773-8.249-2.326-18.908-11.123-22.754-5.495-2.402-11.564-3.735-17.945-3.735z" fill="#80b4fb"/></g><path d="m372.098 184.568c-4.853 19.521-22.489 33.99-43.511 33.99-8.357 0-16.175-2.293-22.873-6.274 7.816 13.151 22.159 21.969 38.567 21.969 24.765 0 44.841-20.076 44.841-44.841 0-1.639-3.112-3.25-3.283-4.843h-13.741z" fill="#365e7d"/><g><path d="m362.222 148.314-17.941 41.098h44.841c0-18.385-11.068-34.177-26.9-41.098z" fill="#c8ea73"/></g><g><path d="m373.428 173.717c0 5.522-1.004 10.809-2.83 15.694h18.524c0-16.403-8.815-30.737-21.96-38.553 3.976 6.695 6.266 14.508 6.266 22.859z" fill="#aad880"/></g><path d="m123.812 230.74h-44.156s-6.151 4.216-6.151 6.351c0 18.51 5.46 35.768 14.849 50.254l44.93-29.022c-3.968-6.121-6.283-13.409-6.283-21.232.001-2.163-3.189-6.351-3.189-6.351z" fill="#ffd064"/><g><path d="m166.154 197.938v-53.496c-51.087 0-92.649 41.562-92.649 92.649h53.496c.001-21.589 17.564-39.153 39.153-39.153z" fill="#dd636e"/></g></g></svg>