<?xml version="1.0" encoding="UTF-8" standalone="no"?>
<svg
   xmlns:dc="http://purl.org/dc/elements/1.1/"
   xmlns:cc="http://creativecommons.org/ns#"
   xmlns:rdf="http://www.w3.org/1999/02/22-rdf-syntax-ns#"
   xmlns:svg="http://www.w3.org/2000/svg"
   xmlns="http://www.w3.org/2000/svg"
   xmlns:sodipodi="http://sodipodi.sourceforge.net/DTD/sodipodi-0.dtd"
   xmlns:inkscape="http://www.inkscape.org/namespaces/inkscape"
   inkscape:version="1.0 (4035a4fb49, 2020-05-01)"
   sodipodi:docname="cancel.svg"
   version="1.1"
   width="512"
   viewBox="0 0 64 64"
   height="512"
   enable-background="new 0 0 64 64"
   id="icons">
  <metadata
     id="metadata57">
    <rdf:RDF>
      <cc:Work
         rdf:about="">
        <dc:format>image/svg+xml</dc:format>
        <dc:type
           rdf:resource="http://purl.org/dc/dcmitype/StillImage" />
      </cc:Work>
    </rdf:RDF>
  </metadata>
  <defs
     id="defs55" />
  <sodipodi:namedview
     inkscape:current-layer="g42"
     inkscape:window-maximized="1"
     inkscape:window-y="32"
     inkscape:window-x="-8"
     inkscape:cy="256"
     inkscape:cx="256"
     inkscape:zoom="1.6152344"
     showgrid="false"
     id="namedview53"
     inkscape:window-height="1017"
     inkscape:window-width="1920"
     inkscape:pageshadow="2"
     inkscape:pageopacity="0"
     guidetolerance="10"
     gridtolerance="10"
     objecttolerance="10"
     borderopacity="1"
     bordercolor="#666666"
     pagecolor="#ffffff" />
  <g
     transform="translate(5.985,-0.5)"
     id="g42">
    <g
       transform="matrix(4.0178571,0,0,4.0178571,-78.509552,-98.080356)"
       id="g112">
      <circle
         transform="translate(-5.985,0.5)"
         id="circle10"
         r="7"
         fill="#ed5565"
         cy="32"
         cx="32" />
      <path
         d="m 22.739694,29.239694 c -0.388909,0.388909 -0.388909,1.025305 0,1.414214 l 5.106398,5.106398 c 0.388909,0.388909 1.025305,0.388909 1.414214,0 0.388909,-0.388909 0.388909,-1.025305 0,-1.414214 l -5.106398,-5.106398 c -0.388909,-0.388909 -1.025305,-0.388909 -1.414214,0 z"
         fill="#ffffff"
         id="path40"
         sodipodi:nodetypes="sssssss" />
      <path
         sodipodi:nodetypes="sssssss"
         id="path106"
         fill="#ffffff"
         d="m 29.260306,29.239694 c 0.388909,0.388909 0.388909,1.025305 0,1.414214 l -5.106398,5.106398 c -0.388909,0.388909 -1.025305,0.388909 -1.414214,0 -0.388909,-0.388909 -0.388909,-1.025305 0,-1.414214 l 5.106398,-5.106398 c 0.388909,-0.388909 1.025305,-0.388909 1.414214,0 z" />
    </g>
  </g>
</svg>
