<?xml version="1.0" encoding="iso-8859-1"?>
<!-- Generator: Adobe Illustrator 19.0.0, SVG Export Plug-In . SVG Version: 6.00 Build 0)  -->
<svg xmlns="http://www.w3.org/2000/svg" xmlns:xlink="http://www.w3.org/1999/xlink" version="1.1" id="Capa_1" x="0px" y="0px" viewBox="0 0 512 512" style="enable-background:new 0 0 512 512;" xml:space="preserve">
<rect x="24.774" y="218.839" style="fill:#00AAF0;" width="462.45" height="24.774"/>
<rect x="49.548" y="359.229" style="fill:#00C3FF;" width="412.9" height="24.774"/>
<rect x="49.548" y="392.259" style="fill:#00AAF0;" width="412.9" height="16.516"/>
<polygon style="fill:#00C3FF;" points="437.677,441.805 74.323,441.805 57.806,408.773 454.194,408.773 "/>
<g>
	<rect x="24.774" y="243.609" style="fill:#FF6991;" width="462.45" height="33.03"/>
	<rect x="41.29" y="284.899" style="fill:#FF6991;" width="429.42" height="49.548"/>
</g>
<g>
	<rect x="33.03" y="260.129" style="fill:#FF507D;" width="445.94" height="24.774"/>
	<rect x="33.03" y="276.639" style="fill:#FF507D;" width="445.94" height="24.774"/>
	<rect x="41.29" y="334.449" style="fill:#FF507D;" width="429.42" height="24.774"/>
</g>
<path style="fill:#00C3FF;" d="M388.131,194.064H49.548c-9.122,0-16.516-7.395-16.516-16.516l0,0  c0-9.122,7.395-16.516,16.516-16.516h396.387c18.243,0,33.032,14.789,33.032,33.032l0,0"/>
<path style="fill:#FF6991;" d="M445.935,127.999h-33.032c18.243,0,33.032-14.789,33.032-33.032s-14.789-33.032-33.032-33.032H82.581  c-9.121,0-16.516,7.394-16.516,16.516c0,9.121,7.395,16.516,16.516,16.516c-18.243,0-33.032,14.789-33.032,33.032  s14.789,33.032,33.032,33.032h363.355c9.121,0,16.516-7.395,16.516-16.516C462.452,135.393,455.057,127.999,445.935,127.999z"/>
<g>
	<path style="fill:#FF507D;" d="M412.903,94.967H90.839c-4.561,0-8.258-3.697-8.258-8.258l0,0c0-4.561,3.697-8.258,8.258-8.258   h322.065c4.561,0,8.258,3.697,8.258,8.258l0,0C421.161,91.269,417.464,94.967,412.903,94.967z"/>
	<path style="fill:#FF507D;" d="M404.645,127.999H90.839c-4.561,0-8.258-3.697-8.258-8.258l0,0c0-4.561,3.697-8.258,8.258-8.258   h313.806c4.561,0,8.258,3.697,8.258,8.258l0,0C412.903,124.302,409.206,127.999,404.645,127.999z"/>
	<path style="fill:#FF507D;" d="M437.677,144.515H90.839c-13.682,0-24.774-11.092-24.774-24.774s11.092-24.774,24.774-24.774h-8.258   c-18.243,0-33.032,14.789-33.032,33.032s14.789,33.032,33.032,33.032h355.097c4.561,0,8.258-3.698,8.258-8.258   C445.935,148.212,442.238,144.515,437.677,144.515z"/>
</g>
<path style="fill:#00AAF0;" d="M454.194,194.064H57.806c-4.561,0-8.258-3.697-8.258-8.258l0,0c0-4.561,3.697-8.258,8.258-8.258  h379.871C446.799,177.547,454.194,184.942,454.194,194.064L454.194,194.064z"/>
<path style="fill:#E1B48C;" d="M489.695,218.838c-0.405,0.071-0.81,0.158-1.211,0.097c-4.524-0.694-8.726,2.395-9.419,6.903  l-7.181,46.677H392.56l3.795-44.718c0.387-4.548-2.984-8.548-7.524-8.927c-4.621-0.468-8.548,2.976-8.927,7.524l-3.914,46.121  H264.258v-45.419c0-4.565-3.694-8.258-8.258-8.258s-8.258,3.694-8.258,8.258v45.419H136.011l-3.914-46.121  c-0.379-4.54-4.274-7.935-8.927-7.524c-4.54,0.379-7.911,4.379-7.524,8.927l3.795,44.718H40.116l-7.181-46.677  c-0.694-4.5-4.823-7.629-9.419-6.903c-0.271,0.042-0.548-0.066-0.823-0.097h-7.557l29.122,189.218  c3.742,24.339,24.339,42.008,48.976,42.008h325.532c24.637,0,45.234-17.669,48.976-42.008l29.066-189.218H489.695z M42.657,289.031  h78.184l3.154,37.161H48.374L42.657,289.031z M50.915,342.709h74.482l3.154,37.161H56.632L50.915,342.709z M93.234,433.547  c-16.427,0-30.153-11.774-32.653-28.008l-1.408-9.153h70.78l0.943,11.113c0.866,10.189,3.535,19.026,7.394,26.048L93.234,433.547  L93.234,433.547z M247.742,433.547h-86.105c-5.653,0-12.911-11.274-14.29-27.452l-0.824-9.71h101.219V433.547z M247.742,379.87  H145.121l-3.153-37.161h105.774V379.87z M247.742,326.193H140.566l-3.154-37.161h110.33L247.742,326.193L247.742,326.193z   M364.653,406.096c-1.379,16.177-8.637,27.452-14.29,27.452h-86.105v-37.161h101.219L364.653,406.096z M366.879,379.87H264.258  v-37.161h105.774L366.879,379.87z M264.258,326.193v-37.161h110.33l-3.154,37.161H264.258z M451.419,405.539  c-2.5,16.234-16.226,28.008-32.653,28.008h-45.055c3.859-7.023,6.528-15.859,7.394-26.048l0.943-11.113h70.78L451.419,405.539z   M455.368,379.87H383.45l3.154-37.161h74.482L455.368,379.87z M463.626,326.193h-75.621l3.154-37.161h78.184L463.626,326.193z"/>
<path style="fill:#EBC9A0;" d="M495.484,194.064H16.516C7.395,194.064,0,201.458,0,210.58c0,9.121,7.395,16.516,16.516,16.516  h478.968c9.121,0,16.516-7.395,16.516-16.516C512,201.458,504.605,194.064,495.484,194.064z"/>
<path style="fill:#E1B48C;" d="M165.161,210.58c0-9.122,7.395-16.516,16.516-16.516H16.516C7.395,194.064,0,201.458,0,210.58  c0,9.121,7.395,16.516,16.516,16.516h165.161C172.556,227.096,165.161,219.701,165.161,210.58z"/>
<g>
</g>
<g>
</g>
<g>
</g>
<g>
</g>
<g>
</g>
<g>
</g>
<g>
</g>
<g>
</g>
<g>
</g>
<g>
</g>
<g>
</g>
<g>
</g>
<g>
</g>
<g>
</g>
<g>
</g>
</svg>
