<?xml version="1.0" encoding="UTF-8" standalone="no"?>
<svg
   xmlns:dc="http://purl.org/dc/elements/1.1/"
   xmlns:cc="http://creativecommons.org/ns#"
   xmlns:rdf="http://www.w3.org/1999/02/22-rdf-syntax-ns#"
   xmlns:svg="http://www.w3.org/2000/svg"
   xmlns="http://www.w3.org/2000/svg"
   xmlns:sodipodi="http://sodipodi.sourceforge.net/DTD/sodipodi-0.dtd"
   xmlns:inkscape="http://www.inkscape.org/namespaces/inkscape"
   inkscape:version="1.0 (4035a4fb49, 2020-05-01)"
   sodipodi:docname="cliente.svg"
   id="svg66"
   version="1.1"
   width="496pt"
   viewBox="0 -15 496 496"
   height="496pt">
  <metadata
     id="metadata72">
    <rdf:RDF>
      <cc:Work
         rdf:about="">
        <dc:format>image/svg+xml</dc:format>
        <dc:type
           rdf:resource="http://purl.org/dc/dcmitype/StillImage" />
      </cc:Work>
    </rdf:RDF>
  </metadata>
  <defs
     id="defs70" />
  <sodipodi:namedview
     inkscape:current-layer="svg66"
     inkscape:window-maximized="1"
     inkscape:window-y="32"
     inkscape:window-x="-8"
     inkscape:cy="330.66667"
     inkscape:cx="330.66667"
     inkscape:zoom="1.250504"
     showgrid="false"
     id="namedview68"
     inkscape:window-height="1017"
     inkscape:window-width="1920"
     inkscape:pageshadow="2"
     inkscape:pageopacity="0"
     guidetolerance="10"
     gridtolerance="10"
     objecttolerance="10"
     borderopacity="1"
     bordercolor="#666666"
     pagecolor="#ffffff" />
  <g
     transform="matrix(1.1439154,0,0,1.1439154,162.10054,-279.56002)"
     id="g101">
    <path
       d="m 144,440.91016 v 24.08203 H 0 v -24.08203 c 0,-13.27735 10.71875,-24 24,-24 v 0.082 h 24 v -0.082 l 24,16 24,-16 v 0.082 h 24 v -0.082 c 13.28125,0 24,10.72265 24,24 z m 0,0"
       fill="#a0d468"
       id="path20" />
    <path
       d="m 120,416.91016 v 0.082 H 96 v -0.082 l -1.503906,1 C 104.58594,420.74219 112,429.89453 112,440.91016 v 24.08203 h 32 v -24.08203 c 0,-13.27735 -10.71875,-24 -24,-24 z m 0,0"
       fill="#8cc152"
       id="path22" />
    <path
       d="m 96,395.46484 v 21.44532 l -24,16 -24,-16 v -21.44532 c 7.28125,3.51953 15.359375,5.44532 24,5.44532 8.640625,0 16.71875,-1.91797 24,-5.44532 z m 0,0"
       fill="#eac6bb"
       id="path24" />
    <path
       d="m 80,320.91016 c 19.121094,0 36.32031,8.39453 48,21.67578 v 2.40625 c 0,22.3125 -13.12109,41.59375 -32,50.48047 -7.28125,3.51953 -15.359375,5.44922 -24,5.44922 -8.640625,0 -16.71875,-1.92188 -24,-5.44922 -18.878906,-8.87891 -32,-28.16797 -32,-50.48047 v -24.08203 c 13.28125,0 24,-10.71875 24,-24 0,13.28125 10.71875,24 24,24 z m 0,0"
       fill="#eac6bb"
       id="path26" />
    <path
       d="m 96,323.00781 v 21.98438 c 0,22.3125 -13.121094,41.59375 -32,50.48047 -2.558594,1.23828 -5.246094,2.19922 -8,3.03125 5.0625,1.51953 10.398438,2.41797 16,2.41797 8.640625,0 16.71875,-1.92188 24,-5.44922 18.87891,-8.87891 32,-28.16797 32,-50.48047 v -2.40625 c -8.29687,-9.44141 -19.42578,-16.32813 -32,-19.57813 z m 0,0"
       fill="#d3b1a9"
       id="path28" />
    <path
       d="m 40,256.91016 v 40 c 0,13.28125 -10.71875,24 -24,24 v -40 c 0,-13.27735 10.71875,-24 24,-24 z m 0,0"
       fill="#da4453"
       id="path30" />
    <path
       d="m 144,304.91016 c 0,-35.35938 -28.64062,-64 -64,-64 -15.121094,0 -29.039062,7.19531 -40,16 v 40 c 0,13.28125 10.71875,24 24,24 h 16 c 19.121094,0 36.32031,8.39453 48,21.67578 3.35937,3.78906 6.26562,7.97265 8.64844,12.48437 l 0.0547,-0.0156 c 0.72266,1.09765 1.89063,1.85547 3.29688,1.85547 2.20703,0 4,-1.78907 4,-4 z m 0,0"
       fill="#ed5565"
       id="path32" />
    <path
       d="m 80,240.91016 c -5.167969,0 -10.183594,0.89062 -15.007812,2.35546 C 92.089844,250.70312 112,275.44141 112,304.91016 v 24.60156 c 6.02344,3.48828 11.44922,7.88672 16,13.07422 3.35937,3.78906 6.26562,7.97265 8.64844,12.48437 l 0.0547,-0.0156 c 0.72266,1.09765 1.89063,1.85547 3.29688,1.85547 2.20703,0 4,-1.78907 4,-4 v -48 c 0,-35.35938 -28.64062,-64 -64,-64 z m 0,0"
       fill="#da4453"
       id="path34" />
  </g>
  <g
     transform="matrix(1.1439154,0,0,1.1439154,-88.438134,-61.977238)"
     id="g82">
    <path
       d="m 480,308.95312 v 11.03125 c -13.76172,-18 -22.07813,-21.27343 -32,-19.1914 l 16,-32.48047 c 9.92187,10.64062 16,24.95312 16,40.64062 z m 0,0"
       fill="#edab37"
       id="path36" />
    <path
       d="m 464,268.3125 -16,32.48047 c -14.96094,3.11719 -33.51953,18.71875 -80,13.27734 -2.55859,-0.3164 -5.19922,-0.63672 -8,-1.11719 v -4 c 0,-33.1289 26.87891,-59.92187 60,-59.92187 17.44141,-0.008 33.12109,7.43359 44,19.28125 z m 0,0"
       fill="#ffce54"
       id="path38" />
    <path
       d="m 420,249.02344 c -2.625,0 -5.19141,0.20703 -7.72656,0.54297 -0.37891,0.0586 -0.7461,0.1289 -1.1211,0.16796 -2.44922,0.37891 -4.84765,0.85938 -7.1914,1.51172 10.91797,3.01953 20.61328,8.96875 28.03906,17.05078 8.19922,8.79297 13.71094,20.11719 15.39844,32.625 0.19531,-0.0508 0.41015,-0.11328 0.60156,-0.15234 l 16,-32.48047 c -10.87891,-11.82422 -26.55859,-19.26562 -44,-19.26562 z m 0,0"
       fill="#f6bb42"
       id="path40" />
    <path
       d="m 480,344.95312 v 0.0781 c 0,22.3125 -13.12109,41.59375 -32,50.48047 -7.28125,3.51953 -15.35938,5.44922 -24,5.44922 -8.64063,0 -16.71875,-1.92188 -24,-5.44922 -18.87891,-8.87891 -32,-28.16797 -32,-50.48047 v -30.96094 c 46.48047,5.44141 65.03906,-10.16797 80,-13.27734 9.92187,-2.08203 18.23828,1.1914 32,19.1914 z m 0,0"
       fill="#eac6bb"
       id="path42" />
    <path
       d="m 448,300.78516 v 44.24609 c 0,22.3125 -13.12109,41.59375 -32,50.48047 -2.55859,1.24219 -5.24609,2.19922 -8,3.03125 5.0625,1.51953 10.39844,2.41797 16,2.41797 8.64062,0 16.71875,-1.92188 24,-5.44922 18.87891,-8.87891 32,-28.16797 32,-50.48047 v -25.04688 c -13.76172,-18 -22.07813,-21.28125 -32,-19.19921 z m 0,0"
       fill="#d3b1a9"
       id="path44" />
    <path
       d="m 400,417.02344 8,7.92187 16,-8 16,8 8,-7.92187 h 24 v -0.0781 c 13.28125,0 24,10.71875 24,24 v 24.07813 H 352 v -24.07813 c 0,-13.28125 10.71875,-24 24,-24 v 0.0781 z m 0,0"
       fill="#e6e9ed"
       id="path46" />
    <path
       d="m 472,416.95312 v 0.0781 h -24 l -1.0625,1.04687 c 9.86328,2.97657 17.0625,12.01172 17.0625,22.875 v 24.07813 h 32 v -24.07813 c 0,-13.28125 -10.71875,-24 -24,-24 z m 0,0"
       fill="#ccd1d9"
       id="path48" />
    <path
       d="m 448,416.95312 v 0.0781 l -8,7.92187 -16,-8 -16,8 -8,-7.92187 v -21.52734 c 7.28125,3.51953 15.35937,5.44922 24,5.44922 8.64062,0 16.71875,-1.92188 24,-5.44922 z m 0,0"
       fill="#f5f7fa"
       id="path50" />
  </g>
  <g
     transform="matrix(1.1439154,0,0,1.1439154,-184.27302,-61.977269)"
     id="g91">
    <path
       d="m 264,424.95312 8,-7.92187 h 24 v -0.0781 c 13.28125,0 24,10.71875 24,24 v 24.07813 H 176 v -24.07813 c 0,-13.28125 10.71875,-24 24,-24 v 0.0781 h 24 l 8,7.92187 16,-8 z m 0,0"
       fill="#5d9cec"
       id="path52" />
    <path
       d="m 296,416.95312 v 0.0781 h -24 l -1.0625,1.04687 c 9.86328,2.97657 17.0625,12.01172 17.0625,22.875 v 24.07813 h 32 v -24.07813 c 0,-13.28125 -10.71875,-24 -24,-24 z m 0,0"
       fill="#4a89dc"
       id="path54" />
    <path
       d="m 272,416.95312 v 0.0781 l -8,7.92187 -16,-8 -16,8 -8,-7.92187 v -21.52734 c 7.28125,3.51953 15.35937,5.44922 24,5.44922 8.64062,0 16.71875,-1.92188 24,-5.44922 z m 0,0"
       fill="#f5f7fa"
       id="path56" />
    <path
       d="m 304,321.02344 v 24 c 0,22.3125 -13.12109,41.59375 -32,50.48047 -7.28125,3.51953 -15.35938,5.44922 -24,5.44922 -8.64063,0 -16.71875,-1.92188 -24,-5.44922 -18.87891,-8.87891 -32,-28.16797 -32,-50.48047 v -23.84766 l 16,-16.07812 v -0.16016 c 0,0 17.76172,8.16016 39.51953,8.16016 20.32031,0 38.08203,-7.12891 40.23438,-8 l 0.23828,0.0781 z m 0,0"
       fill="#eac6bb"
       id="path58" />
    <path
       d="m 288,305.18359 -0.23828,-0.0781 c -1.19531,0.48828 -7.24219,2.85547 -15.76172,4.90234 v 35.01563 c 0,22.3125 -13.12109,41.59375 -32,50.48047 -2.55859,1.23828 -5.24609,2.19922 -8,3.03125 5.0625,1.51953 10.39844,2.41797 16,2.41797 8.64062,0 16.71875,-1.92188 24,-5.44922 18.87891,-8.87891 32,-28.16797 32,-50.48047 v -24 z m 0,0"
       fill="#d3b1a9"
       id="path60" />
    <path
       d="m 192,304.95312 c 0,-30.88281 25.03906,-55.92187 56,-55.92187 30.96094,0 56,25.03906 56,55.92187 v 16.07813 l -16,-15.83984 -0.23828,-0.0781 c -2.16016,0.8711 -19.91406,8 -40.23438,8 -21.76562,0 -39.51953,-8.16016 -39.51953,-8.16016 v 0.16016 l -16,16.07813 v -16.23829 z m 0,0"
       fill="#965353"
       id="path62" />
    <path
       d="m 248,249.02344 c -5.55859,0 -10.92969,0.83203 -16,2.34375 23.14453,6.87109 40,28.25 40,53.57812 v 5.0625 c 8.51172,-2.04687 14.55859,-4.42187 15.76172,-4.90234 l 0.23828,0.0781 16,15.83985 v -16.07813 c 0,-30.88281 -25.03906,-55.92187 -56,-55.92187 z m 0,0"
       fill="#844747"
       id="path64" />
  </g>
</svg>
