<?xml version="1.0" encoding="iso-8859-1"?>
<!-- Generator: Adobe Illustrator 19.0.0, SVG Export Plug-In . SVG Version: 6.00 Build 0)  -->
<svg xmlns="http://www.w3.org/2000/svg" xmlns:xlink="http://www.w3.org/1999/xlink" version="1.1" id="Capa_1" x="0px" y="0px" viewBox="0 0 511.996 511.996" style="enable-background:new 0 0 511.996 511.996;" xml:space="preserve">
<g>
	<path style="fill:#E4EAF8;" d="M379.871,41.586v19.316c64.469,41.077,107.355,113.149,107.355,195.096   S444.34,410.017,379.871,451.094v19.316c73.974-42.905,123.871-122.917,123.871-214.413S453.845,84.49,379.871,41.586z"/>
	<path style="fill:#E4EAF8;" d="M132.129,451.094C67.66,410.017,24.774,337.944,24.774,255.998S67.66,101.979,132.129,60.901V41.586   C58.155,84.49,8.258,164.502,8.258,255.998s49.897,171.508,123.871,214.412V451.094z"/>
</g>
<g>
	<circle style="fill:#FFC850;" cx="16.516" cy="255.997" r="16.516"/>
	<circle style="fill:#FFC850;" cx="48.601" cy="136.258" r="16.516"/>
	<circle style="fill:#FFC850;" cx="136.26" cy="463.397" r="16.516"/>
	<circle style="fill:#FFC850;" cx="48.601" cy="375.737" r="16.516"/>
	<circle style="fill:#FFC850;" cx="136.26" cy="48.599" r="16.516"/>
	<circle style="fill:#FFC850;" cx="495.48" cy="255.997" r="16.516"/>
	<circle style="fill:#FFC850;" cx="463.4" cy="136.258" r="16.516"/>
	<circle style="fill:#FFC850;" cx="375.74" cy="463.397" r="16.516"/>
	<circle style="fill:#FFC850;" cx="463.4" cy="375.737" r="16.516"/>
	<circle style="fill:#FFC850;" cx="375.74" cy="48.599" r="16.516"/>
</g>
<circle style="fill:#C7CFE2;" cx="256" cy="255.998" r="181.68"/>
<path style="fill:#AFB9D2;" d="M403.94,241.348c-6.713-69.886-63.407-126.58-133.294-133.291  c-48.25-4.633-92.193,13.912-122.331,45.707c-3.799,4.008-10.632,0.73-9.865-4.738c1.902-13.565,5.142-26.695,9.695-39.215  c-50.223,37.117-80.66,99.472-72.508,168.352c9.734,82.239,75.958,148.463,158.197,158.197  c68.879,8.152,131.235-22.284,168.352-72.508c-12.52,4.553-25.65,7.793-39.215,9.695c-5.468,0.767-8.746-6.067-4.738-9.865  C390.029,333.543,408.575,289.599,403.94,241.348z"/>
<circle style="fill:#D5DCED;" cx="256" cy="255.998" r="132.13"/>
<path style="fill:#C7CFE2;" d="M383.222,220.724c-6.057-21.883-17.51-41.503-32.97-57.25l-24.926,14.391  c-15.773,9.107-21.197,29.349-12.091,45.122c5.883,10.19,16.85,16.519,28.622,16.519c5.777,0,11.483-1.531,16.501-4.428  L383.222,220.724z"/>
<path style="fill:#E4EAF8;" d="M327.539,214.73L327.539,214.73c4.561,7.9,14.662,10.606,22.561,6.045l34.725-20.048  c7.9-4.561,10.606-14.662,6.045-22.561l0,0c-4.561-7.9-14.662-10.606-22.561-6.045l-34.725,20.048  C325.685,196.729,322.978,206.83,327.539,214.73z"/>
<path style="fill:#C7CFE2;" d="M256,388.126c20.764,0,40.331-4.923,57.813-13.458c-92.974-9.621-166.863-83.51-176.484-176.484  c-8.534,17.482-13.458,37.049-13.458,57.813C123.871,328.97,183.027,388.126,256,388.126z"/>
<g>
</g>
<g>
</g>
<g>
</g>
<g>
</g>
<g>
</g>
<g>
</g>
<g>
</g>
<g>
</g>
<g>
</g>
<g>
</g>
<g>
</g>
<g>
</g>
<g>
</g>
<g>
</g>
<g>
</g>
</svg>
