<?xml version="1.0" encoding="iso-8859-1"?>
<!-- Generator: Adobe Illustrator 19.0.0, SVG Export Plug-In . SVG Version: 6.00 Build 0)  -->
<svg xmlns="http://www.w3.org/2000/svg" xmlns:xlink="http://www.w3.org/1999/xlink" version="1.1" id="Capa_1" x="0px" y="0px" viewBox="0 0 512 512" style="enable-background:new 0 0 512 512;" xml:space="preserve">
<path style="fill:#959CB5;" d="M153.6,256H17.067C7.641,256,0,248.359,0,238.933v-204.8c0-9.426,7.641-17.067,17.067-17.067H153.6  c9.426,0,17.067,7.641,17.067,17.067v204.8C170.667,248.359,163.026,256,153.6,256z"/>
<g>
	<circle style="fill:#7F8499;" cx="85.33" cy="128" r="59.733"/>
	<path style="fill:#7F8499;" d="M51.2,51.2H34.133c-4.717,0-8.533-3.821-8.533-8.533s3.817-8.533,8.533-8.533H51.2   c4.717,0,8.533,3.821,8.533,8.533S55.917,51.2,51.2,51.2z"/>
</g>
<path style="fill:#5B5D6E;" d="M85.375,51.2c-4.717,0-8.575-3.821-8.575-8.533s3.775-8.533,8.492-8.533h0.083  c4.717,0,8.533,3.821,8.533,8.533S90.092,51.2,85.375,51.2z"/>
<g>
	<path style="fill:#7F8499;" d="M119.55,51.2c-4.717,0-8.575-3.821-8.575-8.533s3.775-8.533,8.492-8.533h0.083   c4.717,0,8.533,3.821,8.533,8.533S124.267,51.2,119.55,51.2z"/>
	<path style="fill:#7F8499;" d="M17.067,204.8V17.067C7.641,17.067,0,24.707,0,34.133v204.8C0,248.359,7.641,256,17.067,256h128   c4.713,0,8.533-3.82,8.533-8.533l0,0c0-4.713-3.821-8.533-8.533-8.533H51.2C32.349,238.933,17.067,223.651,17.067,204.8z"/>
</g>
<rect y="204.8" style="fill:#707487;" width="170.67" height="17.07"/>
<circle style="fill:#D5DCED;" cx="85.33" cy="128" r="42.667"/>
<circle style="fill:#00C3FF;" cx="85.33" cy="128" r="25.6"/>
<path style="fill:#00AAF0;" d="M85.333,102.4c-10.387,0-19.284,6.213-23.298,15.102c3.21-1.45,6.747-2.302,10.498-2.302  c14.139,0,25.6,11.461,25.6,25.6c0,3.752-0.852,7.288-2.302,10.498c8.889-4.014,15.102-12.911,15.102-23.298  C110.933,113.861,99.472,102.4,85.333,102.4z"/>
<path style="fill:#959CB5;" d="M324.267,256H187.733c-9.426,0-17.067-7.641-17.067-17.067v-204.8  c0-9.426,7.641-17.067,17.067-17.067h136.533c9.426,0,17.067,7.641,17.067,17.067v204.8C341.333,248.359,333.692,256,324.267,256z"/>
<g>
	<circle style="fill:#7F8499;" cx="256" cy="128" r="59.733"/>
	<path style="fill:#7F8499;" d="M221.867,51.2H204.8c-4.717,0-8.533-3.821-8.533-8.533s3.817-8.533,8.533-8.533h17.067   c4.717,0,8.533,3.821,8.533,8.533S226.583,51.2,221.867,51.2z"/>
</g>
<path style="fill:#5B5D6E;" d="M256.042,51.2c-4.717,0-8.575-3.821-8.575-8.533s3.775-8.533,8.492-8.533h0.083  c4.717,0,8.533,3.821,8.533,8.533S260.758,51.2,256.042,51.2z"/>
<g>
	<path style="fill:#7F8499;" d="M290.217,51.2c-4.717,0-8.575-3.821-8.575-8.533s3.775-8.533,8.492-8.533h0.083   c4.717,0,8.533,3.821,8.533,8.533S294.933,51.2,290.217,51.2z"/>
	<path style="fill:#7F8499;" d="M187.733,204.8V17.067c-9.426,0-17.067,7.641-17.067,17.067v204.8   c0,9.426,7.641,17.067,17.067,17.067h128c4.713,0,8.533-3.82,8.533-8.533l0,0c0-4.713-3.82-8.533-8.533-8.533h-93.867   C203.015,238.933,187.733,223.651,187.733,204.8z"/>
</g>
<rect x="170.67" y="204.8" style="fill:#707487;" width="170.67" height="17.07"/>
<circle style="fill:#D5DCED;" cx="256" cy="128" r="42.667"/>
<circle style="fill:#00C3FF;" cx="256" cy="128" r="25.6"/>
<path style="fill:#00AAF0;" d="M256,102.4c-10.387,0-19.284,6.213-23.298,15.102c3.21-1.45,6.747-2.302,10.498-2.302  c14.139,0,25.6,11.461,25.6,25.6c0,3.752-0.852,7.288-2.302,10.498c8.889-4.014,15.102-12.911,15.102-23.298  C281.6,113.861,270.139,102.4,256,102.4z"/>
<path style="fill:#959CB5;" d="M494.933,256H358.4c-9.426,0-17.067-7.641-17.067-17.067v-204.8c0-9.426,7.641-17.067,17.067-17.067  h136.533c9.426,0,17.067,7.641,17.067,17.067v204.8C512,248.359,504.359,256,494.933,256z"/>
<g>
	<circle style="fill:#7F8499;" cx="426.67" cy="128" r="59.733"/>
	<path style="fill:#7F8499;" d="M392.533,51.2h-17.067c-4.717,0-8.533-3.821-8.533-8.533s3.817-8.533,8.533-8.533h17.067   c4.717,0,8.533,3.821,8.533,8.533S397.25,51.2,392.533,51.2z"/>
</g>
<path style="fill:#5B5D6E;" d="M426.708,51.2c-4.717,0-8.575-3.821-8.575-8.533s3.775-8.533,8.492-8.533h0.083  c4.717,0,8.533,3.821,8.533,8.533S431.425,51.2,426.708,51.2z"/>
<g>
	<path style="fill:#7F8499;" d="M460.883,51.2c-4.717,0-8.575-3.821-8.575-8.533s3.775-8.533,8.492-8.533h0.083   c4.717,0,8.533,3.821,8.533,8.533S465.6,51.2,460.883,51.2z"/>
	<path style="fill:#7F8499;" d="M358.4,204.8V17.067c-9.426,0-17.067,7.641-17.067,17.067v204.8c0,9.426,7.641,17.067,17.067,17.067   h128c4.713,0,8.533-3.82,8.533-8.533l0,0c0-4.713-3.82-8.533-8.533-8.533h-93.867C373.682,238.933,358.4,223.651,358.4,204.8z"/>
</g>
<rect x="341.33" y="204.8" style="fill:#707487;" width="170.67" height="17.07"/>
<circle style="fill:#D5DCED;" cx="426.67" cy="128" r="42.667"/>
<circle style="fill:#00C3FF;" cx="426.67" cy="128" r="25.6"/>
<path style="fill:#00AAF0;" d="M426.667,102.4c-10.387,0-19.284,6.213-23.298,15.102c3.21-1.45,6.747-2.302,10.498-2.302  c14.139,0,25.6,11.461,25.6,25.6c0,3.752-0.852,7.288-2.302,10.498c8.889-4.014,15.102-12.911,15.102-23.298  C452.267,113.861,440.805,102.4,426.667,102.4z"/>
<path style="fill:#959CB5;" d="M153.6,494.933H17.067C7.641,494.933,0,487.292,0,477.867v-204.8C0,263.641,7.641,256,17.067,256  H153.6c9.426,0,17.067,7.641,17.067,17.067v204.8C170.667,487.292,163.026,494.933,153.6,494.933z"/>
<g>
	<circle style="fill:#7F8499;" cx="85.33" cy="366.93" r="59.733"/>
	<path style="fill:#7F8499;" d="M51.2,290.133H34.133c-4.717,0-8.533-3.821-8.533-8.533s3.817-8.533,8.533-8.533H51.2   c4.717,0,8.533,3.821,8.533,8.533S55.917,290.133,51.2,290.133z"/>
</g>
<path style="fill:#5B5D6E;" d="M85.375,290.133c-4.717,0-8.575-3.821-8.575-8.533s3.775-8.533,8.492-8.533h0.083  c4.717,0,8.533,3.821,8.533,8.533S90.092,290.133,85.375,290.133z"/>
<g>
	<path style="fill:#7F8499;" d="M119.55,290.133c-4.717,0-8.575-3.821-8.575-8.533s3.775-8.533,8.492-8.533h0.083   c4.717,0,8.533,3.821,8.533,8.533S124.267,290.133,119.55,290.133z"/>
	<path style="fill:#7F8499;" d="M17.067,443.733V256C7.641,256,0,263.641,0,273.067v204.8c0,9.426,7.641,17.067,17.067,17.067h128   c4.713,0,8.533-3.82,8.533-8.533l0,0c0-4.713-3.821-8.533-8.533-8.533H51.2C32.349,477.867,17.067,462.585,17.067,443.733z"/>
</g>
<rect y="443.73" style="fill:#707487;" width="170.67" height="17.07"/>
<circle style="fill:#D5DCED;" cx="85.33" cy="366.93" r="42.667"/>
<circle style="fill:#00C3FF;" cx="85.33" cy="366.93" r="25.6"/>
<path style="fill:#00AAF0;" d="M85.333,341.333c-10.387,0-19.284,6.212-23.298,15.102c3.21-1.45,6.747-2.302,10.498-2.302  c14.139,0,25.6,11.461,25.6,25.6c0,3.752-0.852,7.288-2.302,10.498c8.889-4.014,15.102-12.911,15.102-23.298  C110.933,352.795,99.472,341.333,85.333,341.333z"/>
<path style="fill:#959CB5;" d="M324.267,494.933H187.733c-9.426,0-17.067-7.641-17.067-17.067v-204.8  c0-9.426,7.641-17.067,17.067-17.067h136.533c9.426,0,17.067,7.641,17.067,17.067v204.8  C341.333,487.292,333.692,494.933,324.267,494.933z"/>
<g>
	<circle style="fill:#7F8499;" cx="256" cy="366.93" r="59.733"/>
	<path style="fill:#7F8499;" d="M221.867,290.133H204.8c-4.717,0-8.533-3.821-8.533-8.533s3.817-8.533,8.533-8.533h17.067   c4.717,0,8.533,3.821,8.533,8.533S226.583,290.133,221.867,290.133z"/>
</g>
<path style="fill:#5B5D6E;" d="M256.042,290.133c-4.717,0-8.575-3.821-8.575-8.533s3.775-8.533,8.492-8.533h0.083  c4.717,0,8.533,3.821,8.533,8.533S260.758,290.133,256.042,290.133z"/>
<g>
	<path style="fill:#7F8499;" d="M290.217,290.133c-4.717,0-8.575-3.821-8.575-8.533s3.775-8.533,8.492-8.533h0.083   c4.717,0,8.533,3.821,8.533,8.533S294.933,290.133,290.217,290.133z"/>
	<path style="fill:#7F8499;" d="M187.733,443.733V256c-9.426,0-17.067,7.641-17.067,17.067v204.8   c0,9.426,7.641,17.067,17.067,17.067h128c4.713,0,8.533-3.82,8.533-8.533l0,0c0-4.713-3.82-8.533-8.533-8.533h-93.867   C203.015,477.867,187.733,462.585,187.733,443.733z"/>
</g>
<rect x="170.67" y="443.73" style="fill:#707487;" width="170.67" height="17.07"/>
<circle style="fill:#D5DCED;" cx="256" cy="366.93" r="42.667"/>
<circle style="fill:#00C3FF;" cx="256" cy="366.93" r="25.6"/>
<path style="fill:#00AAF0;" d="M256,341.333c-10.387,0-19.284,6.212-23.298,15.102c3.21-1.45,6.747-2.302,10.498-2.302  c14.139,0,25.6,11.461,25.6,25.6c0,3.752-0.852,7.288-2.302,10.498c8.889-4.014,15.102-12.911,15.102-23.298  C281.6,352.795,270.139,341.333,256,341.333z"/>
<path style="fill:#959CB5;" d="M494.933,494.933H358.4c-9.426,0-17.067-7.641-17.067-17.067v-204.8  c0-9.426,7.641-17.067,17.067-17.067h136.533c9.426,0,17.067,7.641,17.067,17.067v204.8  C512,487.292,504.359,494.933,494.933,494.933z"/>
<g>
	<circle style="fill:#7F8499;" cx="426.67" cy="366.93" r="59.733"/>
	<path style="fill:#7F8499;" d="M392.533,290.133h-17.067c-4.717,0-8.533-3.821-8.533-8.533s3.817-8.533,8.533-8.533h17.067   c4.717,0,8.533,3.821,8.533,8.533S397.25,290.133,392.533,290.133z"/>
</g>
<path style="fill:#5B5D6E;" d="M426.708,290.133c-4.717,0-8.575-3.821-8.575-8.533s3.775-8.533,8.492-8.533h0.083  c4.717,0,8.533,3.821,8.533,8.533S431.425,290.133,426.708,290.133z"/>
<g>
	<path style="fill:#7F8499;" d="M460.883,290.133c-4.717,0-8.575-3.821-8.575-8.533s3.775-8.533,8.492-8.533h0.083   c4.717,0,8.533,3.821,8.533,8.533S465.6,290.133,460.883,290.133z"/>
	<path style="fill:#7F8499;" d="M358.4,443.733V256c-9.426,0-17.067,7.641-17.067,17.067v204.8c0,9.426,7.641,17.067,17.067,17.067   h128c4.713,0,8.533-3.82,8.533-8.533l0,0c0-4.713-3.82-8.533-8.533-8.533h-93.867C373.682,477.867,358.4,462.585,358.4,443.733z"/>
</g>
<rect x="341.33" y="443.73" style="fill:#707487;" width="170.67" height="17.07"/>
<circle style="fill:#D5DCED;" cx="426.67" cy="366.93" r="42.667"/>
<circle style="fill:#00C3FF;" cx="426.67" cy="366.93" r="25.6"/>
<path style="fill:#00AAF0;" d="M426.667,341.333c-10.387,0-19.284,6.212-23.298,15.102c3.21-1.45,6.747-2.302,10.498-2.302  c14.139,0,25.6,11.461,25.6,25.6c0,3.752-0.852,7.288-2.302,10.498c8.889-4.014,15.102-12.911,15.102-23.298  C452.267,352.795,440.805,341.333,426.667,341.333z"/>
<g>
</g>
<g>
</g>
<g>
</g>
<g>
</g>
<g>
</g>
<g>
</g>
<g>
</g>
<g>
</g>
<g>
</g>
<g>
</g>
<g>
</g>
<g>
</g>
<g>
</g>
<g>
</g>
<g>
</g>
</svg>
