<svg id="Capa_1" enable-background="new 0 0 512 512" height="512" viewBox="0 0 512 512" width="512" xmlns="http://www.w3.org/2000/svg"><g><g><path d="m395.412 435.204h-381.412c-7.732 0-14-6.268-14-14v-185.96c0-7.732 6.268-14 14-14h381.412c7.732 0 14 6.268 14 14v185.96c0 7.732-6.268 14-14 14z" fill="#c8ea73"/></g><g><path d="m395.391 221.244h-9.84v175.076c0 8.297-6.726 15.023-15.023 15.023h-370.528v9.84c0 7.744 6.278 14.021 14.021 14.021h381.37c7.744 0 14.021-6.278 14.021-14.021v-185.918c0-7.744-6.277-14.021-14.021-14.021z" fill="#aad880"/></g><g><path d="m341.911 403.161c-.829 1.742-2.583 2.853-4.512 2.853h-75.79c-1.704 0-2.641-2.002-1.531-3.294 2.954-3.44 5.645-7.213 8.777-10.345 5.699-5.699 13.532-9.932 17.595-16.954 4.006-6.923 3.794-15.8 5.907-23.707 2.043-7.642 6.724-15.202 6.724-23.489 0-8.286-4.681-15.846-6.724-23.488-2.114-7.907-1.901-16.784-5.907-23.707-4.063-7.023-11.896-11.255-17.595-16.954s-9.932-13.532-16.954-17.595c-6.923-4.005-15.8-3.794-23.707-5.907-7.642-2.043-15.202-6.724-23.489-6.724-8.286 0-15.846 4.681-23.488 6.724-7.907 2.113-16.784 1.901-23.707 5.907-7.023 4.063-11.255 11.896-16.954 17.595s-13.532 9.931-17.595 16.954c-4.006 6.923-3.794 15.8-5.907 23.707-2.043 7.642-6.724 15.202-6.724 23.489 0 8.286 4.681 15.846 6.723 23.488 2.113 7.907 1.901 16.784 5.907 23.707 4.063 7.023 11.896 11.255 17.595 16.954 3.132 3.132 5.824 6.906 8.778 10.346 1.11 1.292.172 3.294-1.531 3.294h-75.789c-1.929 0-3.683-1.111-4.512-2.853-11.995-25.226-37.71-42.664-67.501-42.664v60.685c0 7.744 6.278 14.021 14.021 14.021h381.37c7.744 0 14.021-6.278 14.021-14.021v-60.685c-29.79 0-55.506 17.438-67.501 42.663z" fill="#aad880"/></g><g><path d="m385.551 364.392v31.928c0 8.297-6.726 15.023-15.023 15.023h-370.528v9.84c0 7.744 6.278 14.021 14.021 14.021h381.37c7.744 0 14.021-6.278 14.021-14.021v-60.685c-8.344 0-16.368 1.369-23.861 3.894z" fill="#93c8a5"/></g><path d="m213.28 321.536c-4.205-1.486-9.368-3.457-11.964-5.488-.565-1.024.095-3.679 2.042-4.521 3.282-1.419 7.084.914 7.084.914l1.873.947c7.629 3.856 14.599-6.197 8.312-11.989-1.57-1.448-4.295-3.183-7.814-4.264v-.272c0-4.148-3.363-7.511-7.511-7.511s-7.511 3.363-7.511 7.511v.703c-5.854 2.246-10.161 7.474-11.377 13.929-1.211 6.422.935 12.685 5.598 16.343 4.31 3.38 10.362 5.776 16.26 7.861 2.571.909 3.663 2.636 3.243 5.132-.33 1.963-2.021 5.293-6.264 5.321-4.578.028-5.675-.138-9.011-2.321-3.717-2.432-8.79-1.144-10.842 2.947-1.733 3.455-.38 7.69 2.867 9.786 3.559 2.298 6.435 3.488 9.525 4.079v.302c0 4.148 3.363 7.511 7.511 7.511s7.511-3.363 7.511-7.511v-1.156c6.948-2.628 12.223-8.771 13.517-16.468 1.633-9.694-3.612-18.449-13.049-21.785z" fill="#c8ea73"/><g><path d="m204.707 393.599c-36.048 0-65.376-29.327-65.376-65.375s29.328-65.375 65.376-65.375 65.375 29.327 65.375 65.375-29.327 65.375-65.375 65.375zm0-115.728c-27.765 0-50.353 22.588-50.353 50.353s22.588 50.353 50.353 50.353c27.764 0 50.352-22.588 50.352-50.353s-22.588-50.353-50.352-50.353z" fill="#c8ea73"/></g><g><path d="m395.391 221.244h-381.37c-7.743 0-14.021 6.277-14.021 14.021v60.685c29.85 0 55.609-17.507 67.574-42.812.826-1.748 2.583-2.863 4.516-2.863h265.231c1.933 0 3.69 1.115 4.516 2.863 11.965 25.306 37.724 42.812 67.574 42.812v-60.685c.001-7.744-6.276-14.021-14.02-14.021z" fill="#aad880"/></g><g><path d="m395.391 221.244h-9.84v70.812c7.493 2.524 15.517 3.895 23.862 3.895v-60.685c-.001-7.745-6.278-14.022-14.022-14.022z" fill="#93c8a5"/></g><g><path d="m113.5 275-10.912-8.105v-176.099c0-7.732 6.268-14 14-14h371.551l8.987 20.454-.375 177z" fill="#ffecd0"/></g><g><path d="m497.979 76.796h-9.84v175.076c0 8.297-6.726 15.023-15.023 15.023h-370.528v9.84c0 7.744 6.278 14.021 14.021 14.021h381.37c7.744 0 14.021-6.278 14.021-14.021v-185.918c0-7.743-6.278-14.021-14.021-14.021z" fill="#f1cb86"/></g><g><path d="m241.043 76.796h205.814v213.96h-205.814z" fill="#f1cb86"/></g><g><path d="m241.043 266.895h205.814v23.862h-205.814z" fill="#d8aa8b"/></g><path d="m369.785 193.431c-3.177-2.666-7.914-2.254-10.583.923-.38.453-.79.876-1.217 1.256-2.179 1.941-4.988 2.925-8.348 2.925-6.562 0-12.243-3.791-15.007-9.29h8.506c4.149 0 7.511-3.363 7.511-7.511s-3.363-7.511-7.511-7.511h-8.505c2.764-5.499 8.444-9.289 15.007-9.289 3.367 0 6.615.991 9.389 2.865 3.438 2.321 8.107 1.417 10.429-2.021s1.417-8.107-2.02-10.429c-5.269-3.558-11.423-5.438-17.799-5.438-14.96 0-27.535 10.379-30.92 24.312h-3.786c-4.149 0-7.511 3.363-7.511 7.511s3.363 7.511 7.511 7.511h3.786c3.385 13.933 15.96 24.312 30.92 24.312 7.055 0 13.395-2.327 18.34-6.73.966-.861 1.885-1.808 2.73-2.814 2.669-3.177 2.256-7.915-.922-10.582z" fill="#f9ead2"/><g><path d="m343.95 246.108c-36.048 0-65.376-29.327-65.376-65.375s29.328-65.375 65.376-65.375 65.375 29.327 65.375 65.375-29.327 65.375-65.375 65.375zm0-115.728c-27.765 0-50.353 22.588-50.353 50.352s22.588 50.353 50.353 50.353c27.764 0 50.352-22.588 50.352-50.353s-22.588-50.352-50.352-50.352z" fill="#f9ead2"/></g><g><path d="m184.13 140.745h-41.456c-4.418 0-8-3.582-8-8v-22.872c0-4.418 3.582-8 8-8h41.456c4.418 0 8 3.582 8 8v22.872c0 4.419-3.582 8-8 8z" fill="#f1cb86"/></g><g><path d="m197.86 251.159c-5.249 0-8.235-1.77-10.212-2.941-1.258-.746-1.419-.842-2.552-.842-1.131 0-1.292.096-2.55.841-1.976 1.171-4.961 2.941-10.21 2.941s-8.235-1.77-10.212-2.941c-1.258-.746-1.419-.842-2.552-.842s-1.294.096-2.552.842c-1.977 1.171-4.963 2.941-10.212 2.941s-8.235-1.77-10.211-2.941c-1.258-.745-1.419-.841-2.551-.841-4.149 0-7.511-3.363-7.511-7.511s3.363-7.511 7.511-7.511c5.249 0 8.235 1.77 10.211 2.941 1.258.745 1.419.841 2.551.841 1.133 0 1.294-.096 2.552-.842 1.977-1.171 4.963-2.941 10.212-2.941s8.235 1.77 10.212 2.941c1.258.746 1.419.842 2.552.842 1.131 0 1.292-.096 2.55-.841 1.976-1.171 4.961-2.941 10.21-2.941s8.235 1.77 10.212 2.941c1.258.746 1.419.842 2.552.842 1.134 0 1.296-.096 2.555-.842 1.977-1.171 4.963-2.94 10.212-2.94 4.149 0 7.511 3.363 7.511 7.511s-3.363 7.511-7.511 7.511c-1.133 0-1.295.096-2.554.842-1.977 1.17-4.963 2.94-10.213 2.94z" fill="#f1cb86"/></g><g fill="#80bd94"><path d="m73.28 99.423h-17.399c-25.263 0-45.816 20.553-45.816 45.816 0 13.219 5.537 25.431 15.126 34.03h-13.752c-4.149 0-7.511 3.363-7.511 7.511s3.363 7.511 7.511 7.511h31.987c4.149 0 7.511-3.363 7.511-7.511v-31.987c0-4.148-3.363-7.511-7.511-7.511s-7.511 3.363-7.511 7.511v13.879c-6.846-5.805-10.826-14.256-10.826-23.434 0-16.979 13.814-30.793 30.793-30.793h17.398c4.149 0 7.511-3.363 7.511-7.511s-3.362-7.511-7.511-7.511z"/><path d="m507.916 331.254c0-4.148-3.363-7.511-7.511-7.511h-31.987c-4.149 0-7.511 3.363-7.511 7.511v31.987c0 4.148 3.363 7.511 7.511 7.511s7.511-3.363 7.511-7.511v-15.388c6.234 5.763 9.825 13.835 9.825 22.559 0 16.979-13.814 30.793-30.793 30.793h-17.399c-4.149 0-7.511 3.363-7.511 7.511s3.363 7.511 7.511 7.511h17.399c25.263 0 45.816-20.553 45.816-45.816 0-12.04-4.592-23.246-12.655-31.647h12.283c4.148.002 7.511-3.361 7.511-7.51z"/></g></g></svg>