<?xml version="1.0" encoding="UTF-8" standalone="no"?>
<svg
   xmlns:dc="http://purl.org/dc/elements/1.1/"
   xmlns:cc="http://creativecommons.org/ns#"
   xmlns:rdf="http://www.w3.org/1999/02/22-rdf-syntax-ns#"
   xmlns:svg="http://www.w3.org/2000/svg"
   xmlns="http://www.w3.org/2000/svg"
   xmlns:sodipodi="http://sodipodi.sourceforge.net/DTD/sodipodi-0.dtd"
   xmlns:inkscape="http://www.inkscape.org/namespaces/inkscape"
   inkscape:version="1.0 (4035a4fb49, 2020-05-01)"
   sodipodi:docname="corte-diario.svg"
   version="1.1"
   width="512"
   viewBox="0 0 497 497"
   height="512"
   enable-background="new 0 0 497 497"
   id="Capa_1">
  <metadata
     id="metadata58">
    <rdf:RDF>
      <cc:Work
         rdf:about="">
        <dc:format>image/svg+xml</dc:format>
        <dc:type
           rdf:resource="http://purl.org/dc/dcmitype/StillImage" />
      </cc:Work>
    </rdf:RDF>
  </metadata>
  <defs
     id="defs56" />
  <sodipodi:namedview
     inkscape:current-layer="Capa_1"
     inkscape:window-maximized="1"
     inkscape:window-y="32"
     inkscape:window-x="-8"
     inkscape:cy="256"
     inkscape:cx="256"
     inkscape:zoom="1.6601562"
     showgrid="false"
     id="namedview54"
     inkscape:window-height="1017"
     inkscape:window-width="1920"
     inkscape:pageshadow="2"
     inkscape:pageopacity="0"
     guidetolerance="10"
     gridtolerance="10"
     objecttolerance="10"
     borderopacity="1"
     bordercolor="#666666"
     pagecolor="#ffffff" />
  <g
     id="g109">
    <path
       id="path2"
       fill="#f9f8f9"
       d="M 430.947,488.52 62.521,486.504 c -22.091,0 -40,-17.909 -40,-40 L 21.33,140.094 211.287,130.903 481,143.007 v 311 c 0,7.286 -1.948,14.117 -5.352,20.001 -6.916,11.955 -29.896,14.512 -44.701,14.512 z" />
    <path
       id="path4"
       fill="#e9edf1"
       d="m 475.65,474.009 c -6.92,11.96 -19.85,20 -34.65,20 H 56 c -22.09,0 -40,-17.91 -40,-40 v -311 l 13.203,-7.51 6.797,7.51 v 306 c 0,13.81 11.19,25 25,25 z" />
    <path
       id="path6"
       fill="#e9edf1"
       d="m 26.95,133.009 9.05,10 H 16 Z" />
    <g
       id="g88"
       transform="matrix(1.6814558,0,0,1.6814558,30.751477,-114.06434)">
      <path
         d="m 199,251.79 c 0,-38.384 -31.116,-69.5 -69.5,-69.5 -16.596,0 -31.833,5.817 -43.785,15.523 -15.69,12.743 -23.194,32.189 -23.194,53.977 0,38.384 27.489,67.198 65.872,67.198 22.204,0 43.083,-8.111 55.807,-24.32 9.271,-11.811 14.8,-26.699 14.8,-42.878 z"
         fill="#ffd064"
         id="path14" />
      <path
         d="m 137.593,245.265 c -1.919,-0.678 -3.651,-1.193 -5.18,-1.648 -4.217,-1.255 -5.748,-1.776 -7.184,-3.487 -0.378,-0.451 -0.809,-1.775 -0.444,-3.575 0.187,-0.921 0.866,-3.189 3.134,-4.349 3.277,-1.675 7.06,1.324 7.48,1.671 3.194,2.638 7.922,2.186 10.559,-1.009 2.637,-3.194 2.186,-7.921 -1.009,-10.559 -2.213,-1.827 -4.976,-3.445 -8.051,-4.475 v -1.848 c 0,-4.142 -3.358,-7.5 -7.5,-7.5 -4.142,0 -7.5,3.358 -7.5,7.5 v 2.496 c -0.269,0.123 -0.538,0.23 -0.806,0.368 -5.688,2.908 -9.7,8.275 -11.007,14.725 -1.21,5.973 0.156,12.028 3.656,16.197 4.404,5.248 9.484,6.759 14.396,8.221 1.425,0.424 2.898,0.862 4.462,1.415 4.061,1.434 4.474,4.349 4.105,6.541 -0.525,3.128 -3.161,6.508 -7.706,6.539 -5.193,0.035 -6.555,-0.178 -10.404,-2.693 -3.466,-2.266 -8.115,-1.293 -10.381,2.174 -2.266,3.467 -1.293,8.115 2.174,10.381 4.332,2.831 7.716,4.154 11.51,4.732 v 2.237 c 0,4.142 3.358,7.5 7.5,7.5 4.142,0 7.5,-3.358 7.5,-7.5 v -3.237 c 8.156,-2.992 13.375,-10.358 14.599,-17.649 1.732,-10.308 -3.856,-19.62 -13.903,-23.168 z"
         fill="#ebb044"
         id="path16" />
      <path
         d="M 144.5,306.29 C 106.116,306.29 75,275.174 75,236.79 75,221.425 79.995,207.233 88.437,195.727 71.199,208.375 60,228.771 60,251.79 c 0,38.384 31.116,69.5 69.5,69.5 23.019,0 43.415,-11.199 56.063,-28.437 -11.506,8.442 -25.699,13.437 -41.063,13.437 z"
         fill="#ffc250"
         id="path18" />
    </g>
    <path
       id="path22"
       fill="#df646e"
       d="M 479.366,135.499 10.096,130.903 9.585,63.499 20,47.991 h 462 c 8.284,0 15,6.716 15,15 v 60 z" />
    <path
       id="path24"
       fill="#dc4955"
       d="m 25,122.991 c -2.761,0 -5,-2.239 -5,-5 v -70 h -5 c -8.284,0 -15,6.716 -15,15 v 65 c 0,8.284 6.716,15 15,15 h 467 c 8.284,0 15,-6.716 15,-15 v -5 z" />
    <path
       id="path26"
       fill="#f7f9fa"
       d="m 68.191,86.999 c -9.665,0 -17.5,-7.835 -17.5,-17.5 L 56.436,13.584 66.682,2.991 c 1.036,0 2.05,0.09 3.037,0.263 8.217,1.438 14.463,8.608 14.463,17.237 v 55 c 0,1.457 -0.178,2.872 -0.513,4.225 -1.89,7.624 -15.478,7.283 -15.478,7.283 z" />
    <path
       id="path28"
       fill="#e9edf1"
       d="m 69.182,62.491 v -55 c 0,-1.458 0.198,-2.866 0.534,-4.22 -0.987,-0.173 -1.997,-0.28 -3.034,-0.28 -9.665,0 -17.5,7.835 -17.5,17.5 v 55 c 0,9.665 7.835,17.5 17.5,17.5 8.207,0 15.075,-5.658 16.966,-13.28 -8.216,-1.439 -14.466,-8.592 -14.466,-17.22 z" />
    <path
       id="path30"
       fill="#f7f9fa"
       d="m 159.101,86.999 c -9.665,0 -17.5,-7.835 -17.5,-17.5 l 5.745,-55.915 10.246,-10.593 c 1.036,0 2.05,0.09 3.037,0.263 8.217,1.438 14.463,8.608 14.463,17.237 v 55 c 0,1.457 -0.178,2.872 -0.513,4.225 -1.891,7.624 -15.478,7.283 -15.478,7.283 z" />
    <path
       id="path32"
       fill="#e9edf1"
       d="m 160.091,62.491 v -55 c 0,-1.458 0.198,-2.866 0.534,-4.22 -0.987,-0.173 -1.997,-0.28 -3.034,-0.28 -9.665,0 -17.5,7.835 -17.5,17.5 v 55 c 0,9.665 7.835,17.5 17.5,17.5 8.207,0 15.075,-5.658 16.966,-13.28 -8.216,-1.439 -14.466,-8.592 -14.466,-17.22 z" />
    <path
       id="path34"
       fill="#f7f9fa"
       d="m 249.743,86.999 c -9.665,0 -17.5,-7.835 -17.5,-17.5 l 5.745,-55.915 10.246,-10.593 c 1.036,0 2.05,0.09 3.037,0.263 8.217,1.438 14.463,8.608 14.463,17.237 v 55 c 0,1.457 -0.178,2.872 -0.513,4.225 -1.891,7.624 -15.478,7.283 -15.478,7.283 z" />
    <path
       id="path36"
       fill="#e9edf1"
       d="m 250.733,62.491 v -55 c 0,-1.458 0.198,-2.866 0.534,-4.22 -0.987,-0.173 -1.997,-0.28 -3.034,-0.28 -9.665,0 -17.5,7.835 -17.5,17.5 v 55 c 0,9.665 7.835,17.5 17.5,17.5 8.207,0 15.075,-5.658 16.966,-13.28 -8.216,-1.439 -14.466,-8.592 -14.466,-17.22 z" />
    <path
       id="path38"
       fill="#f7f9fa"
       d="m 340.919,86.999 c -9.665,0 -17.5,-7.835 -17.5,-17.5 L 329.164,13.584 339.41,2.991 c 1.036,0 2.05,0.09 3.037,0.263 8.217,1.438 14.463,8.608 14.463,17.237 v 55 c 0,1.457 -0.178,2.872 -0.513,4.225 -1.891,7.624 -15.478,7.283 -15.478,7.283 z" />
    <path
       id="path40"
       fill="#e9edf1"
       d="m 341.909,62.491 v -55 c 0,-1.458 0.198,-2.866 0.534,-4.22 -0.987,-0.173 -1.997,-0.28 -3.034,-0.28 -9.665,0 -17.5,7.835 -17.5,17.5 v 55 c 0,9.665 7.835,17.5 17.5,17.5 8.207,0 15.075,-5.658 16.966,-13.28 -8.216,-1.439 -14.466,-8.592 -14.466,-17.22 z" />
    <path
       id="path42"
       fill="#f7f9fa"
       d="m 431.828,86.999 c -9.665,0 -17.5,-7.835 -17.5,-17.5 l 5.745,-55.915 10.246,-10.593 c 1.036,0 2.05,0.09 3.037,0.263 8.217,1.438 14.463,8.608 14.463,17.237 v 55 c 0,1.457 -0.178,2.872 -0.513,4.225 -1.891,7.624 -15.478,7.283 -15.478,7.283 z" />
    <path
       id="path44"
       fill="#e9edf1"
       d="m 432.818,62.491 v -55 c 0,-1.458 0.198,-2.866 0.534,-4.22 -0.987,-0.173 -1.997,-0.28 -3.034,-0.28 -9.665,0 -17.5,7.835 -17.5,17.5 v 55 c 0,9.665 7.835,17.5 17.5,17.5 8.207,0 15.075,-5.658 16.966,-13.28 -8.216,-1.439 -14.466,-8.592 -14.466,-17.22 z" />
  </g>
</svg>
