<svg id="Capa_1" enable-background="new 0 0 497 497" height="512" viewBox="0 0 497 497" width="512" xmlns="http://www.w3.org/2000/svg"><g id="_x3C_Group_x3E__6_"><path d="m430.947 488.52-368.426-2.016c-22.091 0-40-17.909-40-40l-1.191-306.41 189.957-9.191 269.713 12.104v311c0 7.286-1.948 14.117-5.352 20.001-6.916 11.955-29.896 14.512-44.701 14.512z" fill="#f9f8f9"/><path d="m475.65 474.009c-6.92 11.96-19.85 20-34.65 20h-385c-22.09 0-40-17.91-40-40v-311l13.203-7.51 6.797 7.51v306c0 13.81 11.19 25 25 25z" fill="#e9edf1"/><path d="m26.95 133.009 9.05 10h-20z" fill="#e9edf1"/><path d="m367.399 265.967h-185.12l-.864-22.468 33.84-14.209h200.79c12.426 0 22.5 10.074 22.5 22.5 0 .802-.042 1.594-.124 2.375-1.186 11.31-59.398 11.802-71.022 11.802z" fill="#bed9fd"/><path d="m355.543 395.414-272.17 2.553c-12.426 0-17.362-1.17-17.362-13.596 0-11.624 2.805-21.756 14.115-22.943.78-.082 1.573-.124 2.375-.124h199.99l22.755 10.62 63.903-10.62z" fill="#bed9fd"/><path d="m436.045 254.29h-214.6c-1.362 0-2.446-1.113-2.445-2.475 0-.008 0-.017 0-.025 0-7.878-1.33-15.441-3.745-22.5h-65.858-20v45h85.858 200.79c11.624 0 21.188-8.816 22.374-20.126-.78.082-1.572.126-2.374.126z" fill="#9ec8fc"/><path d="m199 251.79c0-38.384-31.116-69.5-69.5-69.5-16.596 0-31.833 5.817-43.785 15.523-15.69 12.743-23.194 32.189-23.194 53.977 0 38.384 27.489 67.198 65.872 67.198 22.204 0 43.083-8.111 55.807-24.32 9.271-11.811 14.8-26.699 14.8-42.878z" fill="#ffd064"/><path d="m137.593 245.265c-1.919-.678-3.651-1.193-5.18-1.648-4.217-1.255-5.748-1.776-7.184-3.487-.378-.451-.809-1.775-.444-3.575.187-.921.866-3.189 3.134-4.349 3.277-1.675 7.06 1.324 7.48 1.671 3.194 2.638 7.922 2.186 10.559-1.009 2.637-3.194 2.186-7.921-1.009-10.559-2.213-1.827-4.976-3.445-8.051-4.475v-1.848c0-4.142-3.358-7.5-7.5-7.5s-7.5 3.358-7.5 7.5v2.496c-.269.123-.538.23-.806.368-5.688 2.908-9.7 8.275-11.007 14.725-1.21 5.973.156 12.028 3.656 16.197 4.404 5.248 9.484 6.759 14.396 8.221 1.425.424 2.898.862 4.462 1.415 4.061 1.434 4.474 4.349 4.105 6.541-.525 3.128-3.161 6.508-7.706 6.539-5.193.035-6.555-.178-10.404-2.693-3.466-2.266-8.115-1.293-10.381 2.174s-1.293 8.115 2.174 10.381c4.332 2.831 7.716 4.154 11.51 4.732v2.237c0 4.142 3.358 7.5 7.5 7.5s7.5-3.358 7.5-7.5v-3.237c8.156-2.992 13.375-10.358 14.599-17.649 1.732-10.308-3.856-19.62-13.903-23.168z" fill="#ebb044"/><path d="m144.5 306.29c-38.384 0-69.5-31.116-69.5-69.5 0-15.365 4.995-29.557 13.437-41.063-17.238 12.648-28.437 33.044-28.437 56.063 0 38.384 31.116 69.5 69.5 69.5 23.019 0 43.415-11.199 56.063-28.437-11.506 8.442-25.699 13.437-41.063 13.437z" fill="#ffc250"/><path d="m369.15 361.309h-86.66c-1.747 6.772-2.723 13.894-2.828 21.048-.032 2.189-1.802 3.948-3.991 3.948h-185.671c-5.523 0-10-4.477-10-10v-12.5c0-.802.044-1.594.126-2.374-11.31 1.186-20.126 10.749-20.126 22.374 0 12.426 10.074 22.5 22.5 22.5h286.648v-20h-9.974z" fill="#9ec8fc"/><path d="m479.366 135.499-469.27-4.596-.511-67.404 10.415-15.508h462c8.284 0 15 6.716 15 15v60z" fill="#df646e"/><path d="m25 122.991c-2.761 0-5-2.239-5-5v-70h-5c-8.284 0-15 6.716-15 15v65c0 8.284 6.716 15 15 15h467c8.284 0 15-6.716 15-15v-5z" fill="#dc4955"/><path d="m68.191 86.999c-9.665 0-17.5-7.835-17.5-17.5l5.745-55.915 10.246-10.593c1.036 0 2.05.09 3.037.263 8.217 1.438 14.463 8.608 14.463 17.237v55c0 1.457-.178 2.872-.513 4.225-1.89 7.624-15.478 7.283-15.478 7.283z" fill="#f7f9fa"/><path d="m69.182 62.491v-55c0-1.458.198-2.866.534-4.22-.987-.173-1.997-.28-3.034-.28-9.665 0-17.5 7.835-17.5 17.5v55c0 9.665 7.835 17.5 17.5 17.5 8.207 0 15.075-5.658 16.966-13.28-8.216-1.439-14.466-8.592-14.466-17.22z" fill="#e9edf1"/><path d="m159.101 86.999c-9.665 0-17.5-7.835-17.5-17.5l5.745-55.915 10.246-10.593c1.036 0 2.05.09 3.037.263 8.217 1.438 14.463 8.608 14.463 17.237v55c0 1.457-.178 2.872-.513 4.225-1.891 7.624-15.478 7.283-15.478 7.283z" fill="#f7f9fa"/><path d="m160.091 62.491v-55c0-1.458.198-2.866.534-4.22-.987-.173-1.997-.28-3.034-.28-9.665 0-17.5 7.835-17.5 17.5v55c0 9.665 7.835 17.5 17.5 17.5 8.207 0 15.075-5.658 16.966-13.28-8.216-1.439-14.466-8.592-14.466-17.22z" fill="#e9edf1"/><path d="m249.743 86.999c-9.665 0-17.5-7.835-17.5-17.5l5.745-55.915 10.246-10.593c1.036 0 2.05.09 3.037.263 8.217 1.438 14.463 8.608 14.463 17.237v55c0 1.457-.178 2.872-.513 4.225-1.891 7.624-15.478 7.283-15.478 7.283z" fill="#f7f9fa"/><path d="m250.733 62.491v-55c0-1.458.198-2.866.534-4.22-.987-.173-1.997-.28-3.034-.28-9.665 0-17.5 7.835-17.5 17.5v55c0 9.665 7.835 17.5 17.5 17.5 8.207 0 15.075-5.658 16.966-13.28-8.216-1.439-14.466-8.592-14.466-17.22z" fill="#e9edf1"/><path d="m340.919 86.999c-9.665 0-17.5-7.835-17.5-17.5l5.745-55.915 10.246-10.593c1.036 0 2.05.09 3.037.263 8.217 1.438 14.463 8.608 14.463 17.237v55c0 1.457-.178 2.872-.513 4.225-1.891 7.624-15.478 7.283-15.478 7.283z" fill="#f7f9fa"/><path d="m341.909 62.491v-55c0-1.458.198-2.866.534-4.22-.987-.173-1.997-.28-3.034-.28-9.665 0-17.5 7.835-17.5 17.5v55c0 9.665 7.835 17.5 17.5 17.5 8.207 0 15.075-5.658 16.966-13.28-8.216-1.439-14.466-8.592-14.466-17.22z" fill="#e9edf1"/><path d="m431.828 86.999c-9.665 0-17.5-7.835-17.5-17.5l5.745-55.915 10.246-10.593c1.036 0 2.05.09 3.037.263 8.217 1.438 14.463 8.608 14.463 17.237v55c0 1.457-.178 2.872-.513 4.225-1.891 7.624-15.478 7.283-15.478 7.283z" fill="#f7f9fa"/><path d="m432.818 62.491v-55c0-1.458.198-2.866.534-4.22-.987-.173-1.997-.28-3.034-.28-9.665 0-17.5 7.835-17.5 17.5v55c0 9.665 7.835 17.5 17.5 17.5 8.207 0 15.075-5.658 16.966-13.28-8.216-1.439-14.466-8.592-14.466-17.22z" fill="#e9edf1"/><path d="m438.648 383.799c0-38.384-31.116-69.5-69.5-69.5-16.067 0-30.86 5.452-42.631 14.606-16.35 12.716-23.996 35-23.996 57.317 0 38.384 26.494 63.83 64.878 63.83 22.015 0 43.389-6.989 56.123-22.962 9.467-11.875 15.126-26.922 15.126-43.291z" fill="#ffd064"/><path d="m384.148 438.299c-38.384 0-69.5-31.116-69.5-69.5 0-15.364 4.995-29.557 13.437-41.063-17.238 12.648-28.437 33.043-28.437 56.063 0 38.384 31.116 69.5 69.5 69.5 23.019 0 43.415-11.199 56.063-28.437-11.506 8.442-25.698 13.437-41.063 13.437z" fill="#ffc250"/><path d="m375.593 376.982c-1.919-.678-3.651-1.193-5.18-1.648-4.217-1.255-5.748-1.776-7.184-3.487-.378-.451-.809-1.775-.444-3.575.187-.921.866-3.189 3.134-4.349 3.28-1.674 7.059 1.323 7.479 1.669 3.194 2.639 7.921 2.187 10.559-1.006 2.638-3.194 2.188-7.921-1.006-10.559-2.213-1.828-4.977-3.446-8.053-4.477v-1.847c0-4.142-3.358-7.5-7.5-7.5s-7.5 3.358-7.5 7.5v2.496c-.269.123-.538.231-.806.368-5.688 2.908-9.7 8.275-11.007 14.725-1.21 5.973.156 12.028 3.656 16.197 4.404 5.248 9.484 6.759 14.396 8.221 1.425.424 2.898.862 4.462 1.415 4.061 1.434 4.474 4.349 4.105 6.541-.525 3.128-3.161 6.508-7.706 6.539-5.191.032-6.555-.177-10.404-2.693-3.466-2.266-8.115-1.293-10.381 2.174s-1.293 8.115 2.174 10.381c4.332 2.831 7.716 4.154 11.51 4.732v2.237c0 4.142 3.358 7.5 7.5 7.5s7.5-3.358 7.5-7.5v-3.237c8.156-2.992 13.375-10.358 14.599-17.649 1.732-10.308-3.856-19.619-13.903-23.168z" fill="#ebb044"/></g></svg>