<svg id="Capa_1" enable-background="new 0 0 512 512" height="512" viewBox="0 0 512 512" width="512" xmlns="http://www.w3.org/2000/svg"><g><g><path d="m193.873 315.031 7.456 15.225h300.671c5.523 0 10-4.477 10-10v-185.845c0-5.523-4.477-10-10-10h-300.67l-7.486 6.245z" fill="#f9f6f9"/></g><g><path d="m502.027 124.411h-23.018v162.879c0 5.508-4.465 9.973-9.973 9.973h-274.91l-.252 17.766 7.456 15.225h300.697c5.508 0 9.973-4.465 9.973-9.973v-185.896c0-5.508-4.465-9.974-9.973-9.974z" fill="#dddaec"/></g><g><path d="m201.33 124.411h-30.045c-5.508 0-9.973 4.465-9.973 9.973v185.897c0 5.508 4.465 9.973 9.973 9.973h30.045z" fill="#f1cb86"/></g><g><path d="m90.999 63.599c-38.832 0-70.312 31.48-70.312 70.312v.203 157.346c0 1.092.885 1.977 1.977 1.977.847 0 1.588-.544 1.864-1.344 9.511-27.567 35.672-47.375 66.471-47.375 38.832 0 70.312 31.48 70.312 70.312v-180.916-.203c0-38.832-31.479-70.312-70.312-70.312z" fill="#ce9875"/></g><g><path d="m182.895 178.577h-21.584v-14.96h21.584c4.131 0 7.48 3.349 7.48 7.48 0 4.131-3.349 7.48-7.48 7.48z" fill="#eab680"/></g><g><path d="m182.895 292.897h-21.584v-14.96h21.584c4.131 0 7.48 3.349 7.48 7.48 0 4.131-3.349 7.48-7.48 7.48z" fill="#eab680"/></g><g><path d="m114.244 67.55v105.784c0 12.115-9.903 21.76-22.018 21.732-.077 0-.153 0-.23 0-28.247 0-53.658 12.134-71.309 31.473v64.797c0 .967.638 1.876 1.587 2.062 1.002.197 1.936-.384 2.254-1.305 9.511-27.567 35.672-47.375 66.471-47.375 38.832 0 70.312 31.48 70.312 70.312v-180.916-.203c0-30.684-19.661-56.761-47.067-66.361z" fill="#c6865c"/></g><g><path d="m161.311 297.264v23.018c0 5.508 4.465 9.973 9.973 9.973h30.045v-32.991z" fill="#d8aa8b"/></g><g><path d="m309.416 269.866h-79.101c-4.131 0-7.48-3.349-7.48-7.48s3.349-7.48 7.48-7.48h79.101c4.131 0 7.48 3.349 7.48 7.48s-3.349 7.48-7.48 7.48z" fill="#beb9dd"/></g><g><path d="m341.237 167.233h-110.922c-4.131 0-7.48-3.349-7.48-7.48s3.349-7.48 7.48-7.48h110.923c4.131 0 7.48 3.349 7.48 7.48s-3.35 7.48-7.481 7.48z" fill="#beb9dd"/></g><g><path d="m267.341 196.795h-37.026c-4.131 0-7.48-3.349-7.48-7.48s3.349-7.48 7.48-7.48h37.026c4.131 0 7.48 3.349 7.48 7.48s-3.349 7.48-7.48 7.48z" fill="#beb9dd"/></g><g><path d="m342.235 196.795h-37.026c-4.131 0-7.48-3.349-7.48-7.48s3.349-7.48 7.48-7.48h37.026c4.131 0 7.48 3.349 7.48 7.48s-3.349 7.48-7.48 7.48z" fill="#beb9dd"/></g><g><path d="m371.117 291.858c-.993 0-1.992-.074-2.991-.223-5.955-.889-11.149-4.358-14.252-9.519-1.58-2.629-4.468-4.262-7.536-4.262h-5.102c-4.131 0-7.48-3.349-7.48-7.48s3.349-7.48 7.48-7.48h5.102c8.287 0 16.087 4.412 20.357 11.514 1.085 1.804 2.747 2.298 3.64 2.431.893.132 2.626.147 4.191-1.261l21.236-19.119c4.2-3.78 9.828-5.623 15.453-5.059 5.621.565 10.773 3.494 14.136 8.034 1.425 1.925 4.044 2.608 6.229 1.626l23.634-10.639c7.958-3.583 17.017-4.443 25.508-2.421l6.984 1.663c4.019.957 6.501 4.991 5.544 9.009-.957 4.019-4.993 6.5-9.009 5.544l-6.984-1.663c-5.292-1.26-10.94-.724-15.902 1.509l-23.634 10.639c-8.553 3.849-18.812 1.173-24.393-6.365-1.175-1.587-2.766-1.966-3.61-2.051-.844-.086-2.479-.029-3.947 1.292l-21.236 19.118c-3.722 3.354-8.49 5.163-13.418 5.163z" fill="#407093"/></g><path d="m487.708 249.664-6.984-1.663c-.569-.136-1.141-.256-1.715-.366v15.335l5.234 1.246c4.016.956 8.052-1.525 9.009-5.544.957-4.018-1.525-8.051-5.544-9.008z" fill="#2b4d66"/><path d="m452.338 177.973c-4.798-1.696-10.085-3.73-12.928-5.96-.221-.173-.548-1.071-.305-2.361.118-.628.662-2.725 2.687-3.335 4.799-1.444 8.053 1.091 8.053 1.091l1.03.648c7.57 4.761 15.554-5.442 9.113-11.645-1.687-1.556-4.65-3.437-8.493-4.55v-.667c0-4.131-3.349-7.48-7.48-7.48s-7.48 3.349-7.48 7.48v1.12c-6.237 2.255-10.846 7.747-12.131 14.568-1.253 6.65.959 13.127 5.774 16.903 4.533 3.555 10.933 6.087 17.175 8.293 3.756 1.328 4.138 4.021 3.797 6.048-.379 2.252-2.318 6.073-7.185 6.105-5.023.032-6.215-.153-9.891-2.558-3.701-2.422-8.755-1.141-10.798 2.936-1.728 3.449-.365 7.666 2.877 9.758 3.88 2.504 6.986 3.754 10.382 4.345v.757c0 4.131 3.349 7.48 7.48 7.48s7.48-3.349 7.48-7.48v-1.608c7.397-2.664 13.041-9.122 14.408-17.255 1.692-10.071-3.759-19.167-13.565-22.633z" fill="#beb9dd"/><g><path d="m48.714 397.528h-41.234c-4.131 0-7.48-3.349-7.48-7.48s3.349-7.48 7.48-7.48h41.234c4.131 0 7.48 3.349 7.48 7.48s-3.349 7.48-7.48 7.48z" fill="#beb9dd"/></g><g><path d="m292.012 448.401h-71.289c-4.131 0-7.48-3.349-7.48-7.48s3.349-7.48 7.48-7.48h71.289c5.283 0 10.143-2.653 13.001-7.095l11.331-17.614c2.235-3.474 6.864-4.479 10.338-2.244s4.479 6.864 2.244 10.338l-11.331 17.614c-5.625 8.742-15.188 13.961-25.583 13.961z" fill="#beb9dd"/></g><g><path d="m35.043 398.661 45.74 9.223c2.985.602 6.023.905 9.069.905h183.037v-37.482h-183.037c-3.045 0-6.083.303-9.069.905l-45.74 9.223c-2.327.469-4.001 2.514-4.001 4.888v7.448c0 2.376 1.674 4.42 4.001 4.89z" fill="#407093"/></g><g><path d="m272.889 390.048h-183.037c-3.045 0-6.083-.303-9.069-.905l-41.98-8.465-3.76.758c-2.327.469-4.001 2.514-4.001 4.888v7.448c0 2.374 1.674 4.419 4.001 4.888l45.74 9.223c2.985.602 6.023.905 9.069.905h183.037z" fill="#2b4d66"/></g><g><path d="m357.997 369.844-15.201-4.492c-2.845-.841-5.796-1.268-8.762-1.268h-59.413l-7.48 6.103-7.48-6.103h-26.093c-2.754 0-4.987 2.233-4.987 4.987v29.499l4.169 5.742-4.169 4.477v2.236c0 2.754 2.233 4.987 4.987 4.987h26.093l7.48-5.137 7.48 5.137h59.413c2.966 0 5.917-.427 8.762-1.268l15.201-4.492c2.119-.626 3.573-2.572 3.573-4.782v-30.844c0-2.209-1.454-4.156-3.573-4.782z" fill="#407093"/></g><g><path d="m357.997 369.844-13.132-3.881v22.065c0 2.21-1.454 4.156-3.573 4.782l-15.201 4.492c-2.845.841-5.796 1.268-8.762 1.268h-88.748v12.455c0 2.754 2.233 4.987 4.987 4.987h26.093l7.48-5.137 7.48 5.137h59.413c2.966 0 5.917-.427 8.762-1.268l15.201-4.492c2.119-.626 3.573-2.573 3.573-4.782v-30.844c0-2.209-1.454-4.156-3.573-4.782z" fill="#2b4d66"/></g><g><circle cx="220.723" cy="437.882" fill="#beb9dd" r="10.519"/></g><g><path d="m259.661 364.084h14.96v51.928h-14.96z" fill="#beb9dd"/></g></g></svg>