<svg id="Capa_1" enable-background="new 0 0 504.5 504.5" height="512" viewBox="0 0 504.5 504.5" width="512" xmlns="http://www.w3.org/2000/svg"><g id="_x3C_Group_x3E__23_"><path d="m259.378 498.915 5.47-1.378 103.714-107.703c6.172-6.409 1.63-17.088-7.268-17.088h-45.443c-5.572 0-10.09-4.517-10.09-10.09v-33.126l-22.639-136.477 22.639-134.233v-41.23c0-5.572-4.517-10.09-10.09-10.09h-71.731l-8.818 6.347c-5.572 0-10.09 4.517-10.09 10.09l5.045 340.426c0 5.572-12.653 8.384-18.225 8.384h-45.443c-.55 0-1.084.041-1.6.119-7.819 1.186-4.839 11.654.951 17.667l100.34 105.064c3.97 4.12 9.309 7.439 13.278 3.318z" fill="#df646e"/><path d="m264.85 497.54-3.73 3.87c-3.97 4.12-10.57 4.12-14.54 0l-107.44-111.58c-5.79-6-2.15-15.77 5.67-16.96z" fill="#dc4955"/><g><path d="m356.491 178.419c-4.143 0-7.5-3.358-7.5-7.5v-108.217c0-4.142 3.357-7.5 7.5-7.5s7.5 3.358 7.5 7.5v108.217c0 4.143-3.357 7.5-7.5 7.5z" fill="#df646e"/></g><g><path d="m406.491 132.63c-4.143 0-7.5-3.358-7.5-7.5v-117.63c0-4.142 3.357-7.5 7.5-7.5s7.5 3.358 7.5 7.5v117.63c0 4.142-3.357 7.5-7.5 7.5z" fill="#df646e"/></g><g><path d="m148.009 178.419c-4.143 0-7.5-3.358-7.5-7.5v-108.217c0-4.142 3.357-7.5 7.5-7.5s7.5 3.358 7.5 7.5v108.217c0 4.143-3.358 7.5-7.5 7.5z" fill="#df646e"/></g><g><path d="m98.009 132.63c-4.143 0-7.5-3.358-7.5-7.5v-117.63c0-4.142 3.357-7.5 7.5-7.5s7.5 3.358 7.5 7.5v117.63c0 4.142-3.358 7.5-7.5 7.5z" fill="#df646e"/></g><path d="m252.17 48.67c-8.38 0-16.652.708-24.75 2.09-1.823.311-3.48-1.109-3.48-2.957v-40.303h-11.91c-5.573 0-10.09 4.517-10.09 10.09v39.95 273.27 31.85c0 5.57-4.52 10.09-10.09 10.09h22c5.573 0 10.09-4.517 10.09-10.09v-22.122c0-1.849 1.657-3.268 3.48-2.957 8.098 1.381 16.37 2.089 24.75 2.089 18.65 0 36.76-3.48 53.59-10.14v-270.71c-16.83-6.66-34.94-10.15-53.59-10.15z" fill="#dc4955"/><g><path d="m344.714 103.309c-50.182-50.182-131.544-50.182-181.726 0s-45.044 129.683 5.139 179.866 126.406 52.043 176.588 1.861 50.182-131.545-.001-181.727z" fill="#f7f9fa"/><path d="m350.511 278.832c-1.84 2.11-3.78 4.18-5.8 6.2-50.18 50.19-131.54 50.19-181.72 0-50.19-50.18-50.19-131.54 0-181.72 2.02-2.02 4.09-3.96 6.2-5.8-44.31 50.47-42.37 127.36 5.8 175.52 48.16 48.17 125.05 50.11 175.52 5.8z" fill="#e9edf1"/><path d="m323.542 124.481c-38.489-38.489-100.892-38.489-139.381 0s-34.098 96.204 4.391 134.693 96.501 43.177 134.989 4.688c38.489-38.489 38.489-100.892.001-139.381z" fill="#e9edf1"/><path d="m329.741 257.062c-1.94 2.34-4.01 4.61-6.2 6.8-38.49 38.49-100.89 38.49-139.38 0s-38.49-100.89 0-139.38c2.19-2.19 4.46-4.26 6.8-6.2-32.17 38.72-30.1 96.28 6.2 132.58s93.86 38.37 132.58 6.2z" fill="#dce6eb"/><g><g><path d="m219.001 183.236c-6.128 0-12.255-2.332-16.92-6.996-9.329-9.329-9.329-24.51 0-33.839 9.329-9.327 24.508-9.329 33.839 0 9.329 9.329 9.329 24.51 0 33.839-4.665 4.664-10.792 6.996-16.919 6.996zm0-32.839c-2.286 0-4.572.87-6.313 2.611-3.481 3.48-3.481 9.144 0 12.624 3.479 3.482 9.143 3.484 12.624 0 3.481-3.48 3.481-9.144 0-12.624-1.74-1.74-4.026-2.611-6.311-2.611z" fill="#df646e"/></g><g><path d="m288.694 252.931c-6.127 0-12.254-2.332-16.919-6.996-9.329-9.329-9.329-24.51 0-33.839 9.331-9.328 24.51-9.328 33.839 0 9.329 9.329 9.329 24.51 0 33.839-4.665 4.664-10.792 6.996-16.92 6.996zm0-32.839c-2.285 0-4.571.87-6.312 2.611-3.481 3.48-3.481 9.144 0 12.624 3.481 3.482 9.145 3.482 12.624 0 3.481-3.48 3.481-9.144 0-12.624-1.74-1.741-4.026-2.611-6.312-2.611z" fill="#df646e"/></g><g><path d="m207.775 247.748c-1.919 0-3.839-.732-5.304-2.196-2.929-2.93-2.929-7.678 0-10.607l92.152-92.152c2.93-2.928 7.678-2.928 10.607 0 2.929 2.93 2.929 7.678 0 10.607l-92.152 92.152c-1.464 1.464-3.384 2.196-5.303 2.196z" fill="#df646e"/></g></g></g></g></svg>