<svg id="Capa_1" enable-background="new 0 0 512 512" height="512" viewBox="0 0 512 512" width="512" xmlns="http://www.w3.org/2000/svg"><g><g><path d="m500.749 242.183-374.619 75.097c-7.581 1.52-14.959-3.394-16.479-10.975l-36.619-182.671c-1.52-7.581 3.394-14.959 10.975-16.479l374.619-75.098c7.581-1.52 14.959 3.394 16.479 10.975l36.619 182.671c1.52 7.582-3.394 14.96-10.975 16.48z" fill="#e4f6ff"/></g><g><path d="m458.626 32.058-9.707 1.946 34.467 171.937c1.633 8.148-3.648 16.078-11.796 17.711l-363.886 72.946 1.946 9.707c1.52 7.581 8.897 12.495 16.479 10.975l374.619-75.098c7.581-1.52 12.495-8.898 10.975-16.479l-36.618-182.67c-1.52-7.581-8.897-12.495-16.479-10.975z" fill="#cbe2ff"/></g><g><path d="m475.114 43.076c-1.525-7.605-8.926-12.534-16.53-11.01l-374.534 75.081c-7.605 1.525-12.534 8.925-11.01 16.53l11.947 59.597c29.314-5.876 51.166-28.141 57.934-55.348.467-1.879 1.973-3.32 3.872-3.701l74.5-14.935c1.689-.339 2.97 1.465 2.123 2.965-2.26 4.003-4.176 8.302-6.667 12.042-4.475 6.719-11.334 12.418-13.942 20.114-2.571 7.588-.615 16.263-1.134 24.445-.502 7.907-3.61 16.254-1.979 24.391 1.631 8.138 7.717 14.64 11.227 21.743 3.632 7.349 5.171 16.109 10.468 22.119 5.373 6.097 13.898 8.711 20.617 13.186s12.418 11.334 20.114 13.942c7.588 2.571 16.263.615 24.445 1.134 7.907.502 16.254 3.61 24.391 1.979s14.64-7.717 21.743-11.227c7.349-3.632 16.109-5.172 22.119-10.468 6.097-5.373 8.711-13.898 13.186-20.617s11.334-12.418 13.942-20.114c2.571-7.587.615-16.263 1.134-24.445.502-7.907 3.61-16.254 1.979-24.391-1.631-8.138-7.717-14.64-11.227-21.743-3.632-7.349-5.171-16.109-10.468-22.119-5.373-6.097-13.898-8.711-20.617-13.186-3.74-2.491-7.165-5.719-10.794-8.542-1.36-1.058-.873-3.216.816-3.554l74.5-14.935c1.899-.381 3.843.369 4.999 1.922 16.732 22.496 45.477 34.618 74.791 28.742z" fill="#cbe2ff"/></g><g><path d="m126.13 317.28 374.619-75.098c7.581-1.52 12.495-8.897 10.975-16.479l-11.956-59.64c-29.257 5.865-51.078 28.053-57.892 55.187-.471 1.874-1.975 3.31-3.869 3.69l-260.629 52.247c-1.895.38-3.836-.366-4.992-1.913-16.746-22.411-45.434-34.474-74.691-28.609l11.956 59.64c1.52 7.581 8.897 12.495 16.479 10.975z" fill="#cbe2ff"/></g><g><path d="m477.101 174.585 6.286 31.356c1.633 8.148-3.648 16.078-11.796 17.711l-363.886 72.946 1.946 9.707c1.52 7.581 8.897 12.495 16.479 10.975l374.619-75.098c7.581-1.52 12.495-8.898 10.975-16.479l-11.956-59.64c-8.195 1.643-15.805 4.568-22.667 8.522z" fill="#9dc6fb"/></g><g><path d="m458.626 32.058-9.707 1.946 13.941 69.542c7.856 1.004 16.006.77 24.201-.873l-11.956-59.64c-1.52-7.581-8.897-12.495-16.479-10.975z" fill="#9dc6fb"/></g><g><path d="m385.87 479.942-374.619-75.098c-7.581-1.52-12.495-8.898-10.975-16.479l36.619-182.671c1.52-7.581 8.897-12.495 16.479-10.975l374.619 75.098c7.581 1.52 12.495 8.897 10.975 16.479l-36.619 182.671c-1.52 7.581-8.898 12.495-16.479 10.975z" fill="#ffecd0"/></g><g><path d="m427.993 269.817-9.707-1.946-34.467 171.937c-1.633 8.148-9.563 13.429-17.711 11.796l-363.886-72.945-1.946 9.707c-1.52 7.581 3.394 14.959 10.975 16.479l374.619 75.098c7.581 1.52 14.959-3.394 16.479-10.975l36.619-182.671c1.52-7.582-3.394-14.96-10.975-16.48z" fill="#f1cb86"/></g><g><path d="m339.614 437.936c-1.157 1.548-3.098 2.293-4.992 1.913l-74.431-14.921c-1.673-.335-2.2-2.486-.855-3.537 3.578-2.796 6.964-5.973 10.657-8.432 6.719-4.475 15.245-7.089 20.618-13.186 5.297-6.01 6.836-14.77 10.468-22.119 3.511-7.103 9.596-13.606 11.227-21.744s-1.477-16.484-1.979-24.391c-.519-8.181 1.437-16.857-1.134-24.445-2.608-7.697-9.467-13.395-13.942-20.114s-7.09-15.245-13.186-20.618c-6.01-5.297-14.77-6.836-22.119-10.468-7.103-3.511-13.606-9.596-21.744-11.227s-16.484 1.477-24.391 1.979c-8.181.519-16.857-1.437-24.445 1.134-7.697 2.608-13.395 9.467-20.114 13.942s-15.245 7.09-20.618 13.186c-5.297 6.01-6.836 14.77-10.468 22.119-3.511 7.103-9.596 13.606-11.227 21.744s1.477 16.484 1.979 24.391c.519 8.181-1.437 16.857 1.134 24.445 2.608 7.697 9.467 13.395 13.942 20.114 2.459 3.693 4.36 7.929 6.583 11.889.836 1.488-.479 3.269-2.152 2.934l-74.431-14.921c-1.895-.38-3.398-1.816-3.869-3.69-6.814-27.134-28.636-49.323-57.892-55.187l-11.956 59.64c-1.52 7.581 3.394 14.959 10.975 16.479l374.619 75.098c7.581 1.52 14.959-3.394 16.479-10.975l11.956-59.64c-29.258-5.867-57.945 6.197-74.692 28.608z" fill="#f1cb86"/></g><g><path d="m390.104 408.453-6.286 31.356c-1.633 8.148-9.563 13.429-17.711 11.796l-363.885-72.946-1.946 9.707c-1.52 7.581 3.394 14.959 10.975 16.479l374.619 75.098c7.581 1.52 14.959-3.394 16.479-10.975l11.956-59.64c-8.195-1.644-16.345-1.879-24.201-.875z" fill="#d8aa8b"/></g><g><path d="m292.242 240.17c-12.781 0-25.282-3.755-36.162-11.002-14.557-9.695-24.468-24.479-27.905-41.629-7.097-35.402 15.931-69.977 51.332-77.074 17.152-3.439 34.612.009 49.169 9.704 14.558 9.695 24.468 24.48 27.906 41.629 3.438 17.149-.008 34.611-9.703 49.168-9.696 14.557-24.48 24.468-41.63 27.905-4.333.87-8.687 1.299-13.007 1.299zm.24-115.95c-3.328 0-6.679.33-10.017.999-13.209 2.648-24.596 10.281-32.063 21.494-7.468 11.212-10.122 24.661-7.474 37.87 5.466 27.266 32.095 45.001 59.362 39.537 13.209-2.648 24.597-10.281 32.063-21.493 7.468-11.212 10.122-24.661 7.475-37.87-2.648-13.209-10.281-24.596-21.493-32.063-8.379-5.581-18.01-8.474-27.853-8.474z" fill="#dde9f7"/></g><g><path d="m219.757 402.832c-4.322 0-8.673-.429-13.006-1.298-17.149-3.438-31.933-13.348-41.629-27.905s-13.142-32.019-9.704-49.169c3.438-17.149 13.348-31.933 27.905-41.629s32.019-13.143 49.169-9.704c35.402 7.097 58.429 41.672 51.333 77.074-3.438 17.149-13.347 31.933-27.905 41.629-10.879 7.246-23.382 11.002-36.163 11.002zm-.239-115.951c-9.845 0-19.473 2.892-27.853 8.473-11.212 7.468-18.845 18.854-21.493 32.063s.006 26.658 7.474 37.87 18.854 18.845 32.063 21.493c13.21 2.646 26.659-.007 37.87-7.474 11.212-7.468 18.845-18.854 21.493-32.063 5.465-27.267-12.27-53.897-39.537-59.363-3.337-.668-6.69-.999-10.017-.999z" fill="#f9ead2"/></g><g><path d="m427.993 269.817-374.62-75.097c-7.581-1.52-14.959 3.394-16.479 10.975l-11.956 59.64c29.314 5.876 58.059-6.245 74.791-28.742 1.156-1.554 3.101-2.303 4.999-1.922l260.477 52.216c1.899.381 3.404 1.822 3.872 3.701 6.768 27.207 28.62 49.472 57.934 55.348l11.956-59.64c1.521-7.581-3.393-14.959-10.974-16.479z" fill="#f1cb86"/></g><g><path d="m427.993 269.817-9.707-1.946-13.941 69.542c6.862 3.954 14.472 6.88 22.667 8.522l11.956-59.64c1.52-7.58-3.394-14.958-10.975-16.478z" fill="#d8aa8b"/></g><g><path d="m449.406 364.853h-382.072c-7.732 0-14-6.268-14-14v-186.305c0-7.732 6.268-14 14-14h382.072c7.732 0 14 6.268 14 14v60.874l-5.414 12.727 5.414 11.531v101.174c0 7.731-6.268 13.999-14 13.999z" fill="#c8ea73"/></g><g><path d="m449.362 150.548h-9.856v175.358c0 8.31-6.737 15.047-15.047 15.047h-371.125v9.856c0 7.756 6.288 14.044 14.044 14.044h381.984c7.756 0 14.044-6.288 14.044-14.044v-186.217c0-7.756-6.287-14.044-14.044-14.044z" fill="#aad880"/></g><g><path d="m395.724 182.494c11.984 25.346 37.785 42.881 67.683 42.881v-60.783c0-7.756-6.288-14.044-14.044-14.044h-381.985c-7.756 0-14.044 6.288-14.044 14.044v60.783c29.898 0 55.699-17.535 67.683-42.881.828-1.751 2.587-2.867 4.524-2.867h75.982c1.723 0 2.624 2.02 1.499 3.324-3.003 3.481-5.726 7.319-8.904 10.497-5.709 5.708-13.554 9.948-17.624 16.982-4.012 6.934-3.8 15.825-5.917 23.745-2.046 7.655-6.735 15.227-6.735 23.527 0 8.299 4.688 15.872 6.734 23.526 2.117 7.92 1.904 16.811 5.916 23.745 4.07 7.034 11.915 11.273 17.623 16.982 3.138 3.138 5.834 6.919 8.793 10.364 1.111 1.294.172 3.298-1.533 3.298h-75.913c-1.932 0-3.689-1.112-4.519-2.857-12.015-25.265-37.772-42.732-67.61-42.732v60.783c0 7.756 6.288 14.044 14.044 14.044h381.984c7.756 0 14.044-6.288 14.044-14.044v-60.783c-29.839 0-55.595 17.467-67.61 42.732-.83 1.745-2.587 2.857-4.519 2.857h-75.914c-1.705 0-2.644-2.004-1.533-3.298 2.959-3.446 5.655-7.226 8.793-10.364 5.709-5.708 13.554-9.948 17.624-16.982 4.012-6.934 3.8-15.825 5.917-23.745 2.046-7.655 6.735-15.227 6.735-23.527 0-8.299-4.688-15.872-6.734-23.526-2.117-7.92-1.904-16.811-5.916-23.745-4.07-7.034-11.915-11.273-17.623-16.982-3.178-3.178-5.901-7.016-8.904-10.497-1.125-1.305-.224-3.325 1.499-3.325h75.98c1.936 0 3.696 1.117 4.524 2.868z" fill="#aad880"/></g><g><path d="m439.506 293.927v31.979c0 8.31-6.737 15.047-15.047 15.047h-371.125v9.856c0 7.756 6.288 14.044 14.044 14.044h381.984c7.756 0 14.044-6.288 14.044-14.044v-60.783c-8.358 0-16.394 1.372-23.9 3.901z" fill="#93c8a5"/></g><g><path d="m449.362 150.548h-9.856v70.926c7.505 2.528 15.542 3.901 23.9 3.901v-60.783c0-7.756-6.287-14.044-14.044-14.044z" fill="#93c8a5"/></g><path d="m266.958 251.002c-4.211-1.489-9.383-3.463-11.983-5.497-.565-1.026-.003-3.965 2.047-4.527 3.908-1.072 6.252.545 6.861.828.811.376 1.345.741 1.345.741 7.553 4.439 15.266-5.498 9.091-11.714-1.573-1.451-4.302-3.189-7.826-4.272v-.271c0-4.155-3.368-7.524-7.524-7.524-4.155 0-7.524 3.368-7.524 7.524v.705c-5.863 2.249-10.178 7.486-11.396 13.952-1.212 6.433.937 12.705 5.608 16.369 4.317 3.386 10.378 5.785 16.285 7.873 2.576.911 3.67 2.641 3.25 5.141-.33 1.966-2.023 5.301-6.273 5.329-4.606.03-5.686-.138-9.027-2.324-3.723-2.436-8.805-1.146-10.859 2.952-1.735 3.462-.379 7.703 2.874 9.804 3.564 2.301 6.444 3.492 9.539 4.084v.302c0 4.155 3.368 7.523 7.524 7.523s7.524-3.368 7.524-7.523v-1.158c6.959-2.633 12.243-8.785 13.539-16.493 1.63-9.713-3.624-18.482-13.075-21.824z" fill="#c8ea73"/><g><path d="m258.37 323.182c-36.106 0-65.481-29.375-65.481-65.481s29.375-65.481 65.481-65.481 65.48 29.375 65.48 65.481-29.373 65.481-65.48 65.481zm0-115.915c-27.809 0-50.434 22.625-50.434 50.434s22.625 50.434 50.434 50.434 50.433-22.625 50.433-50.434-22.624-50.434-50.433-50.434z" fill="#c8ea73"/></g></g></svg>