<svg id="icons" enable-background="new 0 0 64 64" height="512" viewBox="0 0 64 64" width="512" xmlns="http://www.w3.org/2000/svg"><g><g><g><path d="m41 3-9 5-9-5z" fill="#ccd1d9"/></g><g><path d="m3 16 7.27 10.38-2.27 1.62-7-10z" fill="#e6e9ed"/></g><g><circle cx="26" cy="34" fill="#ed5565" r="7"/></g><g><path d="m41 3 1 3-6 6-4-4z" fill="#e6e9ed"/></g><g><path d="m53.73 26.38 7.27-10.38 2 2-7 10z" fill="#e6e9ed"/></g><g><path d="m45 26v16c0 1.1-.9 2-2 2s-2-.9-2-2v-4c0 1.1-.9 2-2 2s-2-.9-2-2v-8c0-1.1.9-2 2-2s2 .9 2 2v-4c0-1.1.9-2 2-2s2 .9 2 2z" fill="#656d78"/></g><g><path d="m32 8-4 4-6-6 1-3z" fill="#e6e9ed"/></g><g><path d="m39 40c1.1 0 2-.9 2-2v4c0 1.1.9 2 2 2s2-.9 2-2v-16c0-1.1-.9-2-2-2s-2 .9-2 2v4c0-1.1-.9-2-2-2s-2 .9-2 2v8c0 1.1.9 2 2 2zm22-24-7.27 10.38-4.73-3.38v35.01h-34v-35.01l-4.73 3.38-7.27-10.38 8-8 11-2 6 6 4-4 4 4 6-6 11 2zm-28 18c0-3.87-3.13-7-7-7s-7 3.13-7 7 3.13 7 7 7 7-3.13 7-7z" fill="#a0d468"/></g><g><path d="m15 58.01h34v1c0 1.1-.9 1.99-2 1.99h-30c-1.1 0-2-.89-2-1.99z" fill="#8cc152"/></g></g><g><g><path d="m26 35c-.55 0-1-.45-1-1v-3c0-.55.45-1 1-1s1 .45 1 1v3c0 .55-.45 1-1 1z" fill="#fff"/></g><g><path d="m26.02 38c-.55 0-1-.45-1-1s.44-1 1-1h.01c.55 0 1 .45 1 1s-.46 1-1.01 1z" fill="#fff"/></g></g></g></svg>