<svg id="icons" enable-background="new 0 0 64 64" height="512" viewBox="0 0 64 64" width="512" xmlns="http://www.w3.org/2000/svg"><g><g><g><circle cx="31.97" cy="8.49" fill="#5d9cec" r="3"/></g><g><path d="m24.98 17.5h14c0 3.86-3.13 7-7 7s-7-3.14-7-7z" fill="#ccd1d9"/></g><g><path d="m57.98 23.5-5 11-7-3v28.01h-28v-28.01l-7 3-5-11 12-6h7c0 3.86 3.13 7 7 7s7-3.14 7-7h7z" fill="#e6e9ed"/></g></g><g><g><path d="m6.98 47.5c-.55 0-1-.45-1-1v-4.01c0-.55.45-1 1-1s1 .45 1 1v4.01c0 .55-.45 1-1 1z" fill="#a0d468"/></g><g><path d="m7.98 45.49h-2c-.55 0-1-.45-1-1s.45-1 1-1h2c.55 0 1 .45 1 1s-.45 1-1 1z" fill="#a0d468"/></g></g><g><g><path d="m5.98 15.5c-.55 0-1-.45-1-1v-4.01c0-.55.45-1 1-1s1 .45 1 1v4.01c0 .56-.45 1-1 1z" fill="#ffce54"/></g><g><path d="m6.98 13.5h-2c-.55 0-1-.45-1-1s.45-1 1-1h2c.55 0 1 .45 1 1s-.45 1-1 1z" fill="#ffce54"/></g></g><g><path d="m9.01 57.49c-.55 0-1-.45-1-1s.44-1 1-1h.01c.55 0 1 .45 1 1s-.46 1-1.01 1z" fill="#ac92ec"/></g><g><path d="m1 30.5c-.55 0-1-.45-1-1s.44-1 1-1c.55 0 1 .45 1 1s-.45 1-1 1z" fill="#ed5565"/></g><g><path d="m34.97 9.49c-2.21 0-4-1.79-4-4 0-.55.45-1 1-1s1 .45 1 1c0 1.1.9 2 2 2 .55 0 1 .45 1 1s-.45 1-1 1z" fill="#5d9cec"/></g><g><path d="m31.98 12.49c-.55 0-1-.45-1-1 0-2.2 1.79-4 4-4 .55 0 1 .45 1 1s-.45 1-1 1c-1.1 0-2 .9-2 2 0 .55-.45 1-1 1z" fill="#5d9cec"/></g><g><path d="m28.97 9.49c-.55 0-1-.45-1-1s.45-1 1-1c1.1 0 2-.9 2-2 0-.55.45-1 1-1s1 .45 1 1c0 2.21-1.79 4-4 4z" fill="#5d9cec"/></g><g><path d="m31.97 12.49c-.55 0-1-.45-1-1 0-1.1-.9-2-2-2-.55 0-1-.45-1-1s.45-1 1-1c2.2 0 4 1.79 4 4 0 .55-.45 1-1 1z" fill="#5d9cec"/></g><g><g><path d="m55.99 46.5c-.55 0-1-.45-1-1v-4.01c0-.55.45-1 1-1s1 .45 1 1v4.01c0 .55-.45 1-1 1z" fill="#ffce54"/></g><g><path d="m56.99 44.49h-2c-.55 0-1-.45-1-1s.45-1 1-1h2c.55 0 1 .45 1 1s-.45 1-1 1z" fill="#ffce54"/></g></g><g><g><path d="m57.98 14.5c-.55 0-1-.45-1-1v-4.01c0-.55.45-1 1-1s1 .45 1 1v4.01c0 .56-.44 1-1 1z" fill="#a0d468"/></g><g><path d="m58.98 12.5h-2c-.55 0-1-.45-1-1s.45-1 1-1h2c.55 0 1 .45 1 1s-.44 1-1 1z" fill="#a0d468"/></g></g><g><path d="m56 57.49c-.55 0-1-.45-1-1s.44-1 1-1c.55 0 1 .45 1 1s-.45 1-1 1z" fill="#ed5565"/></g><g><path d="m63 31.5c-.55 0-1-.45-1-1s.44-1 1-1c.55 0 1 .45 1 1s-.44 1-1 1z" fill="#48cfad"/></g><g><path d="m45 13.5c-.55 0-1-.45-1-1s.44-1 1-1c.55 0 1 .45 1 1s-.44 1-1 1z" fill="#ac92ec"/></g><g><path d="m18 14.5c-.55 0-1-.45-1-1s.44-1 1-1c.55 0 1 .45 1 1s-.44 1-1 1z" fill="#48cfad"/></g></g></svg>