<?xml version="1.0" encoding="iso-8859-1"?>
<!-- Generator: Adobe Illustrator 19.0.0, SVG Export Plug-In . SVG Version: 6.00 Build 0)  -->
<svg xmlns="http://www.w3.org/2000/svg" xmlns:xlink="http://www.w3.org/1999/xlink" version="1.1" id="Capa_1" x="0px" y="0px" viewBox="0 0 512 512" style="enable-background:new 0 0 512 512;" xml:space="preserve">
<path style="fill:#959CB5;" d="M429.421,512H82.583c-9.122,0-16.516-7.395-16.516-16.516V16.516C66.067,7.395,73.461,0,82.583,0  h346.839c9.122,0,16.516,7.395,16.516,16.516v478.968C445.937,504.605,438.543,512,429.421,512z"/>
<g>
	<path style="fill:#7F8499;" d="M123.873,470.71c-18.243,0-33.032-14.789-33.032-33.032V0h-8.258   c-9.122,0-16.516,7.395-16.516,16.516v478.968c0,9.122,7.395,16.516,16.516,16.516h317.935c11.402,0,20.645-9.243,20.645-20.645   l0,0c0-11.402-9.243-20.645-20.645-20.645H123.873z"/>
	<circle style="fill:#7F8499;" cx="256.002" cy="247.74" r="132.13"/>
	<path style="fill:#7F8499;" d="M280.776,454.194h-49.548c-4.565,0-8.258-3.698-8.258-8.258s3.694-8.258,8.258-8.258h49.548   c4.565,0,8.258,3.698,8.258,8.258S285.341,454.194,280.776,454.194z"/>
</g>
<circle style="fill:#D5DCED;" cx="256.002" cy="247.74" r="115.61"/>
<circle style="fill:#959CB5;" cx="256.002" cy="247.74" r="90.84"/>
<circle style="fill:#00AAF0;" cx="256.002" cy="247.74" r="74.32"/>
<circle style="fill:#00C3FF;" cx="256.002" cy="247.74" r="57.806"/>
<g>
	<circle style="fill:#87DCFF;" cx="272.522" cy="231.23" r="16.516"/>
	<circle style="fill:#87DCFF;" cx="231.232" cy="272.52" r="8.258"/>
</g>
<g>
	<path style="fill:#7F8499;" d="M156.905,66.065h-49.548c-4.565,0-8.258-3.698-8.258-8.258s3.694-8.258,8.258-8.258h49.548   c4.565,0,8.258,3.698,8.258,8.258S161.47,66.065,156.905,66.065z"/>
	<circle style="fill:#7F8499;" cx="330.322" cy="41.29" r="16.516"/>
	<circle style="fill:#7F8499;" cx="388.132" cy="41.29" r="16.516"/>
</g>
<g>
	<rect x="66.062" y="404.64" style="fill:#707487;" width="379.87" height="16.516"/>
	<polygon style="fill:#707487;" points="206.454,82.581 206.454,0 189.937,0 189.937,82.581 66.067,82.581 66.067,99.097    445.937,99.097 445.937,82.581  "/>
</g>
<circle style="fill:#5B5D6E;" cx="256.002" cy="41.29" r="24.774"/>
<path style="fill:#C7CFE2;" d="M305.55,236.508v22.468c0,7.873,5.557,14.651,13.277,16.195l22.155,4.431  c3.725-9.927,5.858-20.633,5.858-31.86c0-11.228-2.134-21.933-5.858-31.86l-22.155,4.431  C311.107,221.856,305.55,228.635,305.55,236.508z"/>
<g>
</g>
<g>
</g>
<g>
</g>
<g>
</g>
<g>
</g>
<g>
</g>
<g>
</g>
<g>
</g>
<g>
</g>
<g>
</g>
<g>
</g>
<g>
</g>
<g>
</g>
<g>
</g>
<g>
</g>
</svg>
