<?xml version="1.0" encoding="UTF-8" standalone="no"?>
<svg
   xmlns:dc="http://purl.org/dc/elements/1.1/"
   xmlns:cc="http://creativecommons.org/ns#"
   xmlns:rdf="http://www.w3.org/1999/02/22-rdf-syntax-ns#"
   xmlns:svg="http://www.w3.org/2000/svg"
   xmlns="http://www.w3.org/2000/svg"
   xmlns:sodipodi="http://sodipodi.sourceforge.net/DTD/sodipodi-0.dtd"
   xmlns:inkscape="http://www.inkscape.org/namespaces/inkscape"
   id="icons"
   enable-background="new 0 0 64 64"
   height="512"
   viewBox="0 0 64 64"
   width="512"
   version="1.1"
   sodipodi:docname="productos-nuevos.svg"
   inkscape:version="1.0.1 (c497b03c, 2020-09-10)">
  <metadata
     id="metadata904">
    <rdf:RDF>
      <cc:Work
         rdf:about="">
        <dc:format>image/svg+xml</dc:format>
        <dc:type
           rdf:resource="http://purl.org/dc/dcmitype/StillImage" />
      </cc:Work>
    </rdf:RDF>
  </metadata>
  <defs
     id="defs902" />
  <sodipodi:namedview
     pagecolor="#ffffff"
     bordercolor="#666666"
     borderopacity="1"
     objecttolerance="10"
     gridtolerance="10"
     guidetolerance="10"
     inkscape:pageopacity="0"
     inkscape:pageshadow="2"
     inkscape:window-width="1920"
     inkscape:window-height="1008"
     id="namedview900"
     showgrid="false"
     inkscape:zoom="1.1628592"
     inkscape:cx="250.8403"
     inkscape:cy="242.24081"
     inkscape:window-x="0"
     inkscape:window-y="22"
     inkscape:window-maximized="1"
     inkscape:current-layer="icons" />
  <g
     id="g897">
    <g
       id="g869">
      <g
         id="g835">
        <path
           d="m 35.5,9 h 0.98 v 3 H 22.5 V 9 h 1 z"
           fill="#ccd1d9"
           id="path833" />
      </g>
      <g
         id="g839">
        <path
           d="m 35.5,3 v 6 h -12 V 3 c 0,-1.11 0.9,-2 2,-2 h 8 c 1.1,0 2,0.89 2,2 z"
           fill="#5d9cec"
           id="path837"
           style="fill:#a0d468;fill-opacity:1" />
      </g>
      <g
         id="g843">
        <path
           d="m 23.5,27 h 7 v 3 h -7 z"
           fill="#e6e9ed"
           id="path841" />
      </g>
      <g
         id="g847">
        <path
           d="M 30.5,37.5 C 30.5,35.57 28.93,34 27,34 c -1.93,0 -3.5,1.57 -3.5,3.5 0,1.93 1.57,3.5 3.5,3.5 1.93,0 3.5,-1.57 3.5,-3.5 z m 3,-7.5 v 15 h -13 V 30 h 3 7 z"
           fill="#e6e9ed"
           id="path845" />
      </g>
      <g
         id="g851">
        <path
           d="m 20.5,27 h 3 v 3 h -3 z"
           fill="#e6e9ed"
           id="path849" />
      </g>
      <g
         id="g855">
        <path
           d="m 30.5,27 h 3 v 3 h -3 z"
           fill="#e6e9ed"
           id="path853" />
      </g>
      <g
         id="g859">
        <circle
           cx="27"
           cy="37.5"
           fill="#5d9cec"
           r="3.5"
           id="circle857"
           style="fill:#a0d468;fill-opacity:1" />
      </g>
      <g
         id="g863">
        <path
           d="m 47.5,44 v 15 h -10 -21 V 23 h 21 v 11 c 0,5.53 4.47,10 10,10 z m -14,1 V 30 27 h -3 -7 -3 v 3 15 z"
           fill="#5d9cec"
           id="path861"
           style="fill:#a0d468;fill-opacity:1" />
      </g>
      <g
         id="g867">
        <path
           d="m 51.5,22 v 37 c 0,2.21 -1.79,4 -4,4 h -31 c -2.21,0 -4,-1.79 -4,-4 V 22 c 0,-5.53 4.47,-10 10,-10 h 13.98 5.02 c 5.53,0 10,4.47 10,10 z m -4,37 V 44 c -5.53,0 -10,-4.47 -10,-10 V 23 h -21 v 36 h 21 z m 0,-19 V 22 c 0,-3.32 -2.68,-6 -6,-6 v 18 c 0,3.32 2.68,6 6,6 z"
           fill="#e6e9ed"
           id="path865" />
      </g>
    </g>
    <g
       id="g887">
      <g
         id="g873">
        <path
           d="m 27,42 c -2.48,0 -4.5,-2.02 -4.5,-4.5 0,-2.48 2.02,-4.5 4.5,-4.5 2.48,0 4.5,2.02 4.5,4.5 0,2.48 -2.02,4.5 -4.5,4.5 z m 0,-7 c -1.38,0 -2.5,1.12 -2.5,2.5 0,1.38 1.12,2.5 2.5,2.5 1.38,0 2.5,-1.12 2.5,-2.5 C 29.5,36.12 28.38,35 27,35 Z"
           fill="#ffffff"
           id="path871" />
      </g>
      <g
         id="g877">
        <path
           d="m 42.5,50 h -21 c -0.55,0 -1,-0.45 -1,-1 0,-0.55 0.45,-1 1,-1 h 21 c 0.55,0 1,0.45 1,1 0,0.55 -0.45,1 -1,1 z"
           fill="#4a89dc"
           id="path875"
           style="fill:#6da62f;fill-opacity:1" />
      </g>
      <g
         id="g881">
        <path
           d="m 42.5,53 h -21 c -0.55,0 -1,-0.45 -1,-1 0,-0.55 0.45,-1 1,-1 h 21 c 0.55,0 1,0.45 1,1 0,0.55 -0.45,1 -1,1 z"
           fill="#4a89dc"
           id="path879"
           style="fill:#6da62f;fill-opacity:1" />
      </g>
      <g
         id="g885">
        <path
           d="m 33.5,56 h -12 c -0.55,0 -1,-0.45 -1,-1 0,-0.55 0.45,-1 1,-1 h 12 c 0.55,0 1,0.45 1,1 0,0.55 -0.45,1 -1,1 z"
           fill="#4a89dc"
           id="path883"
           style="fill:#6da62f;fill-opacity:1" />
      </g>
    </g>
    <g
       fill="#ccd1d9"
       id="g895">
      <path
         d="m 20.5,30 h 13 v 1 h -13 z"
         id="path889" />
      <path
         d="m 23,27 h 1 v 3 h -1 z"
         id="path891" />
      <path
         d="m 30,27 h 1 v 3 h -1 z"
         id="path893" />
    </g>
  </g>
  <g
     id="g1586"
     transform="translate(15.586582,-15.264101)">
    <g
       id="g966"
       transform="translate(-17,21)">
      <path
         d="m 49,1 c 5.52,0 10,4.48 10,10 0,5.52 -4.48,10 -10,10 H 48.99 C 44.51,21 40.73,18.05 39.46,14 39.16,13.05 39,12.05 39,11 39,9.18 39.49,7.47 40.34,6 42.07,3.01 45.3,1 49,1 Z"
         fill="#a0d468"
         id="path964" />
    </g>
    <g
       id="g974"
       transform="rotate(-45,66.340707,43.224386)">
      <path
         d="m 47,15 c -0.26,0 -0.51,-0.1 -0.71,-0.29 -0.39,-0.39 -0.39,-1.02 0,-1.41 l 6,-6 c 0.39,-0.39 1.02,-0.39 1.41,0 0.39,0.39 0.39,1.02 0,1.41 l -6,6 C 47.51,14.9 47.25,15 47,15 Z"
         fill="#ffffff"
         id="path972" />
    </g>
    <g
       id="g1578"
       transform="rotate(45,15.654293,-0.21938606)">
      <path
         d="m 47,15 c -0.26,0 -0.51,-0.1 -0.71,-0.29 -0.39,-0.39 -0.39,-1.02 0,-1.41 l 6,-6 c 0.39,-0.39 1.02,-0.39 1.41,0 0.39,0.39 0.39,1.02 0,1.41 l -6,6 C 47.51,14.9 47.25,15 47,15 Z"
         fill="#ffffff"
         id="path1576" />
    </g>
  </g>
</svg>
