<svg id="icons" enable-background="new 0 0 64 64" height="512" viewBox="0 0 64 64" width="512" xmlns="http://www.w3.org/2000/svg"><g><g><g><path d="m35.5 9h.98v3h-13.98v-3h1z" fill="#ccd1d9"/></g><g><path d="m35.5 3v6h-12v-6c0-1.11.9-2 2-2h8c1.1 0 2 .89 2 2z" fill="#5d9cec"/></g><g><path d="m23.5 27h7v3h-7z" fill="#e6e9ed"/></g><g><path d="m30.5 37.5c0-1.93-1.57-3.5-3.5-3.5s-3.5 1.57-3.5 3.5 1.57 3.5 3.5 3.5 3.5-1.57 3.5-3.5zm3-7.5v15h-13v-15h3 7z" fill="#e6e9ed"/></g><g><path d="m20.5 27h3v3h-3z" fill="#e6e9ed"/></g><g><path d="m30.5 27h3v3h-3z" fill="#e6e9ed"/></g><g><circle cx="27" cy="37.5" fill="#5d9cec" r="3.5"/></g><g><path d="m47.5 44v15h-10-21v-36h21v11c0 5.53 4.47 10 10 10zm-14 1v-15-3h-3-7-3v3 15z" fill="#5d9cec"/></g><g><path d="m51.5 22v37c0 2.21-1.79 4-4 4h-31c-2.21 0-4-1.79-4-4v-37c0-5.53 4.47-10 10-10h13.98 5.02c5.53 0 10 4.47 10 10zm-4 37v-15c-5.53 0-10-4.47-10-10v-11h-21v36h21zm0-19v-18c0-3.32-2.68-6-6-6v18c0 3.32 2.68 6 6 6z" fill="#e6e9ed"/></g></g><g><g><path d="m27 42c-2.48 0-4.5-2.02-4.5-4.5s2.02-4.5 4.5-4.5 4.5 2.02 4.5 4.5-2.02 4.5-4.5 4.5zm0-7c-1.38 0-2.5 1.12-2.5 2.5s1.12 2.5 2.5 2.5 2.5-1.12 2.5-2.5-1.12-2.5-2.5-2.5z" fill="#fff"/></g><g><path d="m42.5 50h-21c-.55 0-1-.45-1-1s.45-1 1-1h21c.55 0 1 .45 1 1s-.45 1-1 1z" fill="#4a89dc"/></g><g><path d="m42.5 53h-21c-.55 0-1-.45-1-1s.45-1 1-1h21c.55 0 1 .45 1 1s-.45 1-1 1z" fill="#4a89dc"/></g><g><path d="m33.5 56h-12c-.55 0-1-.45-1-1s.45-1 1-1h12c.55 0 1 .45 1 1s-.45 1-1 1z" fill="#4a89dc"/></g></g><g fill="#ccd1d9"><path d="m20.5 30h13v1h-13z"/><path d="m23 27h1v3h-1z"/><path d="m30 27h1v3h-1z"/></g></g></svg>