<svg id="Capa_1" enable-background="new 0 0 512 512" height="512" viewBox="0 0 512 512" width="512" xmlns="http://www.w3.org/2000/svg"><g><g><path d="m112.538 52.954h-77.154c-2.761 0-5 2.239-5 5v70.052c0 2.761 2.239 5 5 5h77.154c2.761 0 5-2.239 5-5v-70.052c0-2.762-2.239-5-5-5z" fill="#dddaec"/></g><path d="m112.538 52.954h-17.25c2.761 0 5 2.239 5 5v70.052c0 2.761-2.239 5-5 5h17.25c2.761 0 5-2.239 5-5v-70.052c0-2.762-2.239-5-5-5z" fill="#d0cee7"/><g><path d="m95.952 100.687-60.365 32.318h60.365z" fill="#d0cee7"/></g><g><path d="m71.76 86.805h-15.219c-4.31 0-7.804-3.494-7.804-7.804s3.494-7.804 7.804-7.804h15.219c4.31 0 7.804 3.494 7.804 7.804s-3.494 7.804-7.804 7.804z" fill="#beb9dd"/></g><path d="m77.125 110.766v22.239h18.827v-32.318z" fill="#beb9dd"/><g><path d="m176.077 99.707h-77.154c-2.761 0-5 2.239-5 5v136.748h87.154v-136.748c0-2.761-2.238-5-5-5z" fill="#f9f6f9"/></g><path d="m176.077 99.707h-17.881c2.761 0 5 2.239 5 5v136.748h17.881v-136.748c0-2.761-2.238-5-5-5z" fill="#dddaec"/><g><path d="m203.326 238.994h-129.365v-33.633c0-5.523 4.477-10 10-10h109.365c5.523 0 10 4.477 10 10z" fill="#d0cee7"/></g><path d="m193.326 195.361h-28.025c5.523 0 10 4.477 10 10v33.633h28.025v-33.633c0-5.523-4.477-10-10-10z" fill="#beb9dd"/><g><path d="m277.657 117.308v107.534c0 2.874-2.329 5.203-5.203 5.203h-211.909c-8.621 0-15.609 6.988-15.609 15.609v164.522h422.128v-292.868c0-8.621-6.988-15.609-15.609-15.609h-158.189c-8.62 0-15.609 6.989-15.609 15.609z" fill="#407093"/></g><path d="m451.455 101.699h-28.125c8.621 0 15.609 6.988 15.609 15.609v292.868h28.125v-292.868c0-8.62-6.988-15.609-15.609-15.609z" fill="#365e7d"/><g><path d="m420.914 218.261h-97.106c-5.021 0-9.091-4.07-9.091-9.091v-62.168c0-5.021 4.07-9.091 9.091-9.091h97.106c5.021 0 9.091 4.07 9.091 9.091v62.168c0 5.021-4.07 9.091-9.091 9.091z" fill="#c8ea73"/></g><path d="m420.914 137.91h-14.97v47.198c0 5.021-4.07 9.091-9.091 9.091h-82.136v14.97c0 5.021 4.07 9.091 9.091 9.091h97.106c5.021 0 9.091-4.07 9.091-9.091v-62.168c0-5.021-4.07-9.091-9.091-9.091z" fill="#aad880"/><g><path d="m302.728 271.004h-36.897l-7.804 5.877-7.804-5.877h-39.093l-7.804 5.877-7.805-5.877h-39.092l-7.804 5.877-7.804-5.877h-36.897c-5.523 0-10 4.477-10 10v78.213c0 5.523 4.477 10 10 10h36.897l7.804-5.093 7.804 5.093h39.092l7.805-5.093 7.804 5.093h39.092l7.804-5.093 7.804 5.093h36.897c5.523 0 10-4.477 10-10v-78.213c.001-5.522-4.476-10-9.999-10z" fill="#f9f6f9"/></g><path d="m302.728 271.004h-8.254v69.959c0 5.523-4.477 10-10 10h-190.551v8.254c0 5.523 4.477 10 10 10h36.897l7.804-5.093 7.804 5.093h39.092l7.805-5.093 7.804 5.093h39.092l7.804-5.093 7.804 5.093h36.897c5.523 0 10-4.477 10-10v-78.213c.002-5.522-4.475-10-9.998-10z" fill="#dddaec"/><g><path d="m135.283 140.81h-15.219c-4.31 0-7.804-3.494-7.804-7.804s3.494-7.804 7.804-7.804h15.219c4.31 0 7.804 3.494 7.804 7.804s-3.494 7.804-7.804 7.804z" fill="#beb9dd"/></g><g><path d="m135.283 171.988h-15.219c-4.31 0-7.804-3.494-7.804-7.804s3.494-7.804 7.804-7.804h15.219c4.31 0 7.804 3.494 7.804 7.804s-3.494 7.804-7.804 7.804z" fill="#beb9dd"/></g><g><path d="m195.521 271.004h15.609v98.213h-15.609z" fill="#beb9dd"/></g><g><path d="m250.222 271.004h15.609v98.213h-15.609z" fill="#beb9dd"/></g><g><path d="m140.82 271.004h15.609v98.213h-15.609z" fill="#beb9dd"/></g><g><path d="m93.923 312.307h218.805v15.609h-218.805z" fill="#beb9dd"/></g><g><path d="m501.797 459.046h-491.594c-5.635 0-10.203-4.568-10.203-10.202v-40.422c0-5.635 4.568-10.203 10.203-10.203h491.595c5.635 0 10.203 4.568 10.203 10.203v40.422c-.001 5.634-4.569 10.202-10.204 10.202z" fill="#d0cee7"/></g><path d="m501.797 398.219h-13.855v26.568c0 5.635-4.568 10.203-10.203 10.203h-477.739v13.855c0 5.635 4.568 10.203 10.203 10.203h491.595c5.635 0 10.203-4.568 10.203-10.203v-40.423c-.001-5.636-4.569-10.203-10.204-10.203z" fill="#beb9dd"/><g><path d="m401.456 185.89h-29.095c-4.31 0-7.804-3.494-7.804-7.804s3.494-7.804 7.804-7.804h29.095c4.31 0 7.804 3.494 7.804 7.804s-3.494 7.804-7.804 7.804z" fill="#80bd94"/></g><g><path d="m407.714 302.762h-27.489c-8.641 0-15.645-7.005-15.645-15.645 0-8.641 7.005-15.645 15.645-15.645h27.489c8.641 0 15.645 7.005 15.645 15.645 0 8.64-7.005 15.645-15.645 15.645z" fill="#cbe2ff"/></g><g><path d="m407.714 362.658h-27.489c-8.641 0-15.645-7.005-15.645-15.645 0-8.641 7.005-15.645 15.645-15.645h27.489c8.641 0 15.645 7.005 15.645 15.645 0 8.64-7.005 15.645-15.645 15.645z" fill="#ffd064"/></g><path d="m412.096 272.105c.073.615.122 1.236.122 1.871 0 8.641-7.005 15.645-15.645 15.645h-27.489c-1.523 0-2.991-.228-4.383-.634.926 7.757 7.517 13.775 15.523 13.775h27.489c8.641 0 15.645-7.005 15.645-15.645.001-7.118-4.757-13.115-11.262-15.012z" fill="#9dc6fb"/><path d="m412.096 332.001c.073.615.122 1.236.122 1.871 0 8.641-7.005 15.645-15.645 15.645h-27.489c-1.523 0-2.991-.228-4.383-.634.926 7.757 7.517 13.775 15.523 13.775h27.489c8.641 0 15.645-7.005 15.645-15.645.001-7.118-4.757-13.115-11.262-15.012z" fill="#ffc250"/></g></svg>