<svg id="Capa_1" enable-background="new 0 0 512 512" height="512" viewBox="0 0 512 512" width="512" xmlns="http://www.w3.org/2000/svg"><g><g><path d="m382.425 0c-.001 0-.002 0-.002 0h-307.868l43.006 62.408-.008 406.276c0 23.922 19.393 43.315 43.315 43.315h264.872v-468.684c0-23.922-19.392-43.315-43.315-43.315z" fill="#f9f6f9"/></g><g><path d="m382.425 0c-.001 0-.002 0-.002 0h-37c23.922 0 43.315 19.393 43.315 43.315v468.685h37.003v-468.685c-.001-23.922-19.393-43.315-43.316-43.315z" fill="#dddaec"/></g><g><path d="m204.183 454.582v14.103c0 23.922-19.393 43.315-43.315 43.315h276.577c23.922 0 43.315-19.393 43.315-43.315v-14.104c0-2.756-2.234-4.99-4.99-4.99h-266.597c-2.756.001-4.99 2.235-4.99 4.991z" fill="#d0cee7"/></g><g><path d="m475.77 449.591h-25.119v14.144c0 11.129-9.022 20.151-20.151 20.151h-23.164-205.903c-6.158 16.423-21.993 28.114-40.565 28.114h276.577c23.922 0 43.315-19.393 43.315-43.315v-14.104c0-2.755-2.234-4.99-4.99-4.99z" fill="#beb9dd"/></g><g><path d="m117.87 62.409h-81.64c-2.756 0-4.99-2.234-4.99-4.99v-14.104c0-23.922 19.392-43.315 43.315-43.315 23.922 0 43.315 19.393 43.315 43.315z" fill="#d0cee7"/></g><g><path d="m74.555 0c-5.333 0-10.439.97-15.157 2.733 16.445 6.145 28.157 21.994 28.157 40.582v19.093h30.315v-19.093c0-23.922-19.393-43.315-43.315-43.315z" fill="#beb9dd"/></g><g><g><g><path d="m168.923 315.74-26.111-26.112c-1.559-1.559-1.559-4.087 0-5.646l67.446-67.446c5.749-5.748 13.393-8.915 21.524-8.915h43.661l60.55-60.55 31.757 31.757-64.788 64.788c-5.75 5.749-13.394 8.916-21.525 8.916h-43.662l-63.207 63.207c-1.558 1.56-4.086 1.56-5.645.001z" fill="#aad880"/></g></g><g><g><path d="m311.537 128.363h69.054c2.756 0 4.99 2.234 4.99 4.99v69.054c0 2.667-3.225 4.003-5.111 2.117l-71.05-71.05c-1.886-1.886-.55-5.111 2.117-5.111z" fill="#aad880"/></g></g></g><g><path d="m375.734 57.633h-206.882c-4.134 0-7.485-3.351-7.485-7.485s3.351-7.485 7.485-7.485h206.882c4.134 0 7.485 3.351 7.485 7.485s-3.35 7.485-7.485 7.485z" fill="#a1c3e8"/></g><g><path d="m375.734 91.37h-206.882c-4.134 0-7.485-3.351-7.485-7.485s3.351-7.485 7.485-7.485h206.882c4.134 0 7.485 3.351 7.485 7.485.001 4.134-3.35 7.485-7.485 7.485z" fill="#a1c3e8"/></g><g><circle cx="174.616" cy="133.293" fill="#aad880" r="10.754"/></g><g><path d="m245.158 141.684c-.012 0-.023 0-.035 0l-36.27-.163c-4.134-.019-7.47-3.385-7.452-7.518.019-4.123 3.366-7.452 7.484-7.452h.035l36.27.163c4.134.019 7.47 3.385 7.452 7.518-.018 4.123-3.366 7.452-7.484 7.452z" fill="#a1c3e8"/></g><g><circle cx="174.616" cy="167.294" fill="#aad880" r="10.754"/></g><g><path d="m245.158 174.78c-.012 0-.023 0-.035 0l-36.27-.164c-4.134-.019-7.47-3.385-7.452-7.519.019-4.122 3.366-7.451 7.484-7.451h.035l36.27.164c4.134.019 7.47 3.385 7.452 7.519-.018 4.122-3.366 7.451-7.484 7.451z" fill="#a1c3e8"/></g><path d="m369.746 336.545h-194.906c-7.429 0-13.473 6.044-13.473 13.473v53.101c0 7.43 6.044 13.473 13.473 13.473h194.906c7.429 0 13.473-6.043 13.473-13.473v-53.101c0-7.429-6.043-13.473-13.473-13.473zm-1.497 32.629h-35.958v-17.658h35.958zm-103.441 14.97v17.478h-36.395v-17.478zm-36.395-14.97v-17.658h36.395v17.658zm51.365 14.97h37.543v17.478h-37.543zm0-14.97v-17.658h37.543v17.658zm-66.336-17.659v17.658h-37.105v-17.658zm-37.105 32.629h37.105v17.478h-37.105zm155.954 17.478v-17.478h35.958v17.478z" fill="#a1c3e8"/><g><path d="m375.734 282.241h-36.314c-4.134 0-7.485-3.351-7.485-7.485s3.351-7.485 7.485-7.485h36.315c4.134 0 7.485 3.351 7.485 7.485s-3.351 7.485-7.486 7.485z" fill="#a1c3e8"/></g><g><path d="m375.734 314.882h-36.314c-4.134 0-7.485-3.351-7.485-7.485s3.351-7.485 7.485-7.485h36.315c4.134 0 7.485 3.351 7.485 7.485s-3.351 7.485-7.486 7.485z" fill="#a1c3e8"/></g></g></svg>