<?xml version="1.0" encoding="iso-8859-1"?>
<!-- Generator: Adobe Illustrator 19.0.0, SVG Export Plug-In . SVG Version: 6.00 Build 0)  -->
<svg xmlns="http://www.w3.org/2000/svg" xmlns:xlink="http://www.w3.org/1999/xlink" version="1.1" id="Capa_1" x="0px" y="0px" viewBox="0 0 512 512" style="enable-background:new 0 0 512 512;" xml:space="preserve">
<path style="fill:#AFB9D2;" d="M429.421,512H82.583c-9.122,0-16.516-7.395-16.516-16.516V16.516C66.067,7.395,73.461,0,82.583,0  h346.839c9.122,0,16.516,7.395,16.516,16.516v478.968C445.937,504.605,438.543,512,429.421,512z"/>
<g>
	<circle style="fill:#959CB5;" cx="256.002" cy="256" r="140.39"/>
	<path style="fill:#959CB5;" d="M123.873,470.71c-18.243,0-33.032-14.789-33.032-33.032V0h-8.258   c-9.122,0-16.516,7.395-16.516,16.516v478.968c0,9.122,7.395,16.516,16.516,16.516h317.935c11.402,0,20.645-9.243,20.645-20.645   l0,0c0-11.402-9.243-20.645-20.645-20.645H123.873z"/>
</g>
<circle style="fill:#C7CFE2;" cx="256.002" cy="256" r="123.87"/>
<circle style="fill:#5B5D6E;" cx="256.002" cy="41.29" r="24.774"/>
<g>
	<circle style="fill:#7F8499;" cx="330.322" cy="41.29" r="16.516"/>
	<circle style="fill:#7F8499;" cx="181.682" cy="41.29" r="16.516"/>
	<rect x="66.062" y="421.16" style="fill:#7F8499;" width="379.87" height="16.516"/>
	<rect x="66.062" y="74.32" style="fill:#7F8499;" width="379.87" height="16.516"/>
</g>
<g>
	<path style="fill:#D5DCED;" d="M379.399,246.605c-0.54-7.184-1.715-14.173-3.429-20.963l-16.322,3.059   c-7.812,1.464-13.474,8.285-13.474,16.234v22.149c0,7.94,5.65,14.757,13.453,16.23l16.333,3.083   c1.999-7.909,3.222-16.105,3.617-24.537L379.399,246.605z"/>
	<circle style="fill:#D5DCED;" cx="256.002" cy="256" r="74.32"/>
</g>
<g>
</g>
<g>
</g>
<g>
</g>
<g>
</g>
<g>
</g>
<g>
</g>
<g>
</g>
<g>
</g>
<g>
</g>
<g>
</g>
<g>
</g>
<g>
</g>
<g>
</g>
<g>
</g>
<g>
</g>
</svg>
