<svg id="Capa_1" enable-background="new 0 0 511.989 511.989" height="512" viewBox="0 0 511.989 511.989" width="512" xmlns="http://www.w3.org/2000/svg"><g><g><g><path d="m335.093 488.293h-312.093c-12.703 0-23-10.297-23-23v-108.298l13.125-26.21-13.125-29.325v-39.878c0-12.703 10.297-23 23-23h312.093c12.703 0 23 10.297 23 23v39.878l-13.468 27.768 13.468 27.768v108.298c0 12.701-10.297 22.999-23 22.999z" fill="#80b4fb"/></g><g><path d="m335.093 238.581h-17.596v186.179c0 12.668-10.269 22.937-22.937 22.937h-294.56v17.596c0 12.703 10.297 23 23 23h312.093c12.703 0 23-10.297 23-23v-108.298l-13.468-27.768 13.468-27.768v-39.878c0-12.702-10.297-23-23-23z" fill="#7398d3"/></g><g><path d="m0 301.46h358.093v55.536h-358.093z" fill="#407093"/></g><g><path d="m317.497 301.46h40.596v55.536h-40.596z" fill="#2b4d66"/></g><g><path d="m255.552 435.25h-211.546c-3.314 0-6-2.686-6-6v-40.17c0-3.314 2.686-6 6-6h211.546c3.314 0 6 2.686 6 6v40.17c0 3.314-2.686 6-6 6z" fill="#f9f6f9"/></g><g><path d="m231.762 416.645h-28.239c-4.131 0-7.48-3.348-7.48-7.48 0-4.131 3.349-7.48 7.48-7.48h28.239c4.131 0 7.48 3.348 7.48 7.48 0 4.131-3.349 7.48-7.48 7.48z" fill="#beb9dd"/></g></g><g><path d="m493.505 268.99-306.005 61.343c-12.455 2.497-24.575-5.576-27.072-18.031l-40.04-199.738c-2.497-12.455 5.576-24.575 18.031-27.072l306.005-61.343c12.455-2.497 24.575 5.576 27.072 18.031l40.04 199.738c2.497 12.454-5.576 24.575-18.031 27.072z" fill="#9dc6fb"/></g><g><path d="m444.423 24.149-17.253 3.459 36.594 182.547c2.49 12.421-5.561 24.508-17.981 26.998l-288.813 57.897 3.458 17.253c2.497 12.455 14.617 20.527 27.072 18.031l306.005-61.343c12.455-2.497 20.527-14.617 18.031-27.072l-40.04-199.739c-2.497-12.455-14.618-20.528-27.073-18.031z" fill="#80b4fb"/></g><g><path d="m242.679 171.227-23.513 4.713-8.51-4.327-6.157 7.267-23.513 4.714c-6.397 1.282-12.622-2.864-13.904-9.26l-2.4-11.97 2.473-8.727-5.414-5.94-2.399-11.97c-1.282-6.397 2.864-12.622 9.26-13.904l23.513-4.713 8.321 1.91 6.346-4.851 23.513-4.714c6.397-1.282 12.622 2.864 13.904 9.26l2.4 11.97-3.131 8.021 6.071 6.646 2.399 11.97c1.284 6.398-2.862 12.623-9.259 13.905z" fill="#ffe07d"/></g><g><path d="m230.328 109.45-10.367 2.078 5.674 28.303c1.279 6.379-2.856 12.587-9.235 13.866l-51.389 10.302 2.078 10.367c1.279 6.379 7.487 10.514 13.866 9.235l23.545-4.72 6.157-7.267 8.51 4.326 23.544-4.72c6.379-1.279 10.514-7.487 9.235-13.866l-2.406-12.001-6.071-6.646 3.131-8.021-2.406-12.002c-1.279-6.379-7.487-10.513-13.866-9.234z" fill="#ffd064"/></g><g><path d="m164.683 162.364-2.94-14.667 13.171-2.64c4.05-.812 7.991 1.813 8.803 5.863.812 4.05-1.813 7.992-5.864 8.804z" fill="#ebb044"/></g><g><path d="m227.566 142.13c-.812-4.05 1.813-7.992 5.864-8.804l13.17-2.64 2.94 14.667-13.171 2.64c-4.05.812-7.991-1.813-8.803-5.863z" fill="#ebb044"/></g><g><path d="m198.162 115.025h14.959v63h-14.959z" fill="#ebb044" transform="matrix(.981 -.197 .197 .981 -24.789 43.279)"/></g><g><g><path d="m179.871 241.189c-3.491 0-6.613-2.456-7.326-6.01-.812-4.05 1.813-7.993 5.863-8.804l44.074-8.835c4.054-.811 7.992 1.813 8.804 5.863s-1.813 7.993-5.863 8.804l-44.074 8.835c-.496.1-.991.147-1.478.147z" fill="#dde9f7"/></g><g><path d="m259.652 225.196c-3.491 0-6.613-2.456-7.326-6.01-.812-4.05 1.813-7.992 5.863-8.804l44.074-8.835c4.058-.81 7.993 1.813 8.804 5.863.812 4.05-1.813 7.992-5.863 8.804l-44.074 8.835c-.496.099-.991.147-1.478.147z" fill="#dde9f7"/></g><g><path d="m339.432 209.203c-3.491 0-6.614-2.456-7.326-6.01-.812-4.05 1.813-7.992 5.863-8.804l44.075-8.836c4.06-.809 7.993 1.813 8.804 5.863.812 4.05-1.813 7.992-5.863 8.804l-44.075 8.836c-.496.1-.991.147-1.478.147z" fill="#dde9f7"/></g><g><path d="m419.213 193.21c-3.491 0-6.614-2.456-7.326-6.01-.812-4.05 1.813-7.992 5.863-8.804l44.074-8.835c4.058-.81 7.993 1.813 8.804 5.863.812 4.05-1.813 7.992-5.863 8.804l-44.074 8.835c-.496.099-.991.147-1.478.147z" fill="#dde9f7"/></g><path d="m458.807 185.422 5.958-1.194c4.05-.812 6.675-4.754 5.863-8.804-.811-4.049-4.746-6.673-8.804-5.863l-5.957 1.194z" fill="#cbe2ff"/></g><g><path d="m204.86 295.203c-2.76 0-4.818-.451-6.493-.818-2.067-.455-3.314-.726-6.231-.142-4.054.811-7.992-1.813-8.804-5.863s1.813-7.993 5.863-8.804c5.995-1.203 9.682-.394 12.374.197 2.067.455 3.315.726 6.231.142 2.917-.585 3.963-1.318 5.695-2.533 2.257-1.583 5.349-3.75 11.343-4.951 5.994-1.203 9.682-.394 12.375.197 2.069.454 3.318.726 6.232.142 2.917-.585 3.963-1.319 5.697-2.533 2.257-1.583 5.349-3.751 11.344-4.951 5.991-1.203 9.681-.394 12.373.197 2.066.454 3.315.727 6.229.142 2.919-.585 3.965-1.319 5.698-2.534 2.258-1.582 5.35-3.75 11.345-4.95 5.991-1.202 9.683-.395 12.375.196 2.07.453 3.32.727 6.235.141 2.919-.585 3.966-1.319 5.7-2.534 2.257-1.583 5.35-3.75 11.345-4.951 5.996-1.203 9.684-.395 12.377.196 2.069.454 3.318.725 6.237.142 4.05-.81 7.992 1.814 8.803 5.864.812 4.05-1.813 7.992-5.864 8.803-5.997 1.203-9.684.392-12.376-.197-2.069-.452-3.32-.726-6.236-.141-2.92.585-3.967 1.319-5.701 2.534-2.258 1.583-5.35 3.75-11.344 4.951-5.994 1.202-9.684.394-12.377-.196-2.067-.452-3.315-.727-6.234-.141-2.92.585-3.966 1.319-5.699 2.533-2.258 1.583-5.349 3.75-11.343 4.951-5.995 1.202-9.682.393-12.373-.197-2.067-.454-3.313-.725-6.231-.142-2.918.585-3.964 1.319-5.696 2.533-2.258 1.583-5.349 3.75-11.343 4.951-5.995 1.202-9.683.393-12.375-.197-2.068-.454-3.316-.725-6.232-.142-2.916.584-3.962 1.318-5.695 2.533-2.257 1.583-5.349 3.75-11.343 4.951-2.266.454-4.204.621-5.881.621z" fill="#dde9f7"/></g><path d="m192.137 294.243c2.917-.583 4.163-.313 6.231.142 1.675.367 3.733.818 6.493.818 1.678 0 3.615-.167 5.881-.621 5.994-1.202 9.086-3.369 11.343-4.951 1.733-1.215 2.779-1.949 5.695-2.533 2.916-.582 4.164-.312 6.232.142 2.693.59 6.38 1.398 12.375.197 5.994-1.202 9.086-3.369 11.343-4.951 1.733-1.214 2.779-1.948 5.696-2.533 2.918-.582 4.164-.312 6.231.142 2.692.59 6.378 1.398 12.373.197 5.994-1.202 9.086-3.369 11.343-4.951 1.734-1.214 2.78-1.948 5.699-2.533s4.167-.311 6.234.141c2.694.59 6.383 1.398 12.377.196s9.086-3.369 11.344-4.951c1.735-1.215 2.781-1.949 5.701-2.534 2.916-.584 4.167-.311 6.236.141 2.692.589 6.379 1.4 12.376.197 4.051-.811 6.676-4.753 5.864-8.803-.182-.909-.529-1.742-.993-2.485l-174.486 34.978c1.312 3.285 4.814 5.275 8.412 4.555z" fill="#cbe2ff"/><g><ellipse cx="415.735" cy="98.028" fill="#e48e81" rx="38.005" ry="25.244" transform="matrix(.981 -.197 .197 .981 -11.158 83.627)"/></g><g><path d="m436.571 74.5 7.458 37.206c6.871-6.096 10.456-13.732 8.969-21.149-1.486-7.416-7.737-13.08-16.427-16.057z" fill="#da4a54"/></g></g></svg>