<?xml version="1.0" encoding="UTF-8" standalone="no"?>
<svg
   xmlns:dc="http://purl.org/dc/elements/1.1/"
   xmlns:cc="http://creativecommons.org/ns#"
   xmlns:rdf="http://www.w3.org/1999/02/22-rdf-syntax-ns#"
   xmlns:svg="http://www.w3.org/2000/svg"
   xmlns="http://www.w3.org/2000/svg"
   xmlns:sodipodi="http://sodipodi.sourceforge.net/DTD/sodipodi-0.dtd"
   xmlns:inkscape="http://www.inkscape.org/namespaces/inkscape"
   inkscape:version="1.0 (4035a4fb49, 2020-05-01)"
   sodipodi:docname="tarjeta-compra.svg"
   id="svg74"
   version="1.1"
   width="496pt"
   viewBox="0 -80 496 496"
   height="496pt">
  <metadata
     id="metadata80">
    <rdf:RDF>
      <cc:Work
         rdf:about="">
        <dc:format>image/svg+xml</dc:format>
        <dc:type
           rdf:resource="http://purl.org/dc/dcmitype/StillImage" />
      </cc:Work>
    </rdf:RDF>
  </metadata>
  <defs
     id="defs78" />
  <sodipodi:namedview
     inkscape:current-layer="svg74"
     inkscape:window-maximized="1"
     inkscape:window-y="32"
     inkscape:window-x="-8"
     inkscape:cy="330.66667"
     inkscape:cx="330.66667"
     inkscape:zoom="0.88423988"
     showgrid="false"
     id="namedview76"
     inkscape:window-height="1017"
     inkscape:window-width="1920"
     inkscape:pageshadow="2"
     inkscape:pageopacity="0"
     guidetolerance="10"
     gridtolerance="10"
     objecttolerance="10"
     borderopacity="1"
     bordercolor="#666666"
     pagecolor="#ffffff" />
  <path
     id="path2"
     fill="#ffce54"
     d="m264 240h32v32h-32zm0 0" />
  <path
     id="path4"
     fill="#ffce54"
     d="m296 272v32h-32v-32zm0 0" />
  <path
     id="path6"
     fill="#ffce54"
     d="m264 304h32v32h-32zm0 0" />
  <path
     id="path8"
     fill="#f6bb42"
     d="m296 304h48v32h-48zm0 0" />
  <path
     id="path10"
     fill="#f6bb42"
     d="m296 272h48v32h-48zm0 0" />
  <path
     id="path12"
     fill="#f6bb42"
     d="m296 240h48v32h-48zm0 0" />
  <path
     id="path14"
     fill="#edab37"
     d="m344 240h32v32h-32zm0 0" />
  <path
     id="path16"
     fill="#edab37"
     d="m376 288v16h-32v-32h32zm0 0" />
  <path
     id="path18"
     fill="#edab37"
     d="m344 304h32v32h-32zm0 0" />
  <path
     id="path20"
     fill="#ffce54"
     d="m384 304h32v32h-32zm0 0" />
  <path
     id="path22"
     fill="#ffce54"
     d="m416 272v32h-32v-32zm0 0" />
  <path
     id="path24"
     fill="#ffce54"
     d="m384 240h32v32h-32zm0 0" />
  <path
     id="path26"
     fill="#ffce54"
     d="m384 208h32v32h-32zm0 0" />
  <path
     id="path28"
     fill="#ffce54"
     d="m384 176h32v32h-32zm0 0" />
  <path
     id="path30"
     fill="#f6bb42"
     d="m416 176h48v32h-48zm0 0" />
  <path
     id="path32"
     fill="#f6bb42"
     d="m416 208h48v32h-48zm0 0" />
  <path
     id="path34"
     fill="#f6bb42"
     d="m416 240h48v32h-48zm0 0" />
  <path
     id="path36"
     fill="#f6bb42"
     d="m416 272h48v32h-48zm0 0" />
  <path
     id="path38"
     fill="#f6bb42"
     d="m416 304h48v32h-48zm0 0" />
  <path
     id="path40"
     fill="#edab37"
     d="m464 304h32v32h-32zm0 0" />
  <path
     id="path42"
     fill="#edab37"
     d="m464 272h32v32h-32zm0 0" />
  <path
     id="path44"
     fill="#edab37"
     d="m464 240h32v32h-32zm0 0" />
  <path
     id="path46"
     fill="#edab37"
     d="m464 208h32v32h-32zm0 0" />
  <path
     id="path48"
     fill="#edab37"
     d="m464 176h32v32h-32zm0 0" />
  <path
     transform="matrix(0.75000002,0,0,0.75000002,0,-80)"
     d="M 42.666016 106.66602 C 19.197267 106.66602 -4.7369516e-15 125.86524 0 149.33398 L 0 151.47461 L 0 170.66602 L 0 256 L 0 281.58984 L 0 448 C 4.7369516e-15 471.46875 19.197267 490.66602 42.666016 490.66602 L 352 490.66602 L 352 426.66602 L 501.33398 426.66602 L 501.33398 490.66602 L 512 490.66602 L 512 469.33398 L 512 341.33398 L 554.66602 341.33398 L 554.66602 281.58984 L 554.66602 256 L 554.66602 170.66602 L 554.66602 151.47461 L 554.66602 149.33398 C 554.66602 125.86524 535.45833 106.66602 512 106.66602 L 42.666016 106.66602 z "
     style="stroke-width:1.33333;fill:#48cfad;fill-opacity:1"
     id="path50" />
  <path
     id="path56"
     fill="#37bc9b"
     d="m 93.455442,220.72279 h -48 c -4.425781,0 -8,-3.57422 -8,-8 0,-4.42578 3.574219,-8 8,-8 h 48 c 4.425781,0 7.999998,3.57422 7.999998,8 0,4.42578 -3.574217,8 -7.999998,8 z m 0,0" />
  <path
     id="path58"
     fill="#37bc9b"
     d="m 341.45544,220.72279 h -184 c -4.42578,0 -8,-3.57422 -8,-8 0,-4.42578 3.57422,-8 8,-8 h 184 c 4.42578,0 8,3.57422 8,8 0,4.42578 -3.57422,8 -8,8 z m 0,0" />
  <g
     id="g72"
     fill="#e29f33">
    <path
       id="path60"
       d="m 384,208 h 112 v 8 H 384 Z m 0,0" />
    <path
       id="path62"
       d="m 384,240 h 112 v 8 H 384 Z m 0,0" />
    <path
       id="path64"
       d="m 384,272 h 112 v 8 H 384 Z m 0,0" />
    <path
       id="path66"
       d="m 264,272.07812 h 112 v 8 H 264 Z m 0,0" />
    <path
       id="path68"
       d="m 264,304 h 112 v 8 H 264 Z m 0,0" />
    <path
       id="path70"
       d="m 384,304 h 112 v 8 H 384 Z m 0,0" />
  </g>
  <g
     transform="translate(-167.09267,-44.10568)"
     id="g114">
    <path
       id="XMLID_1080_"
       d="m 226.38245,113.92415 c -4.46772,4.43126 -4.49658,11.64479 -0.0653,16.11251 6.88843,6.9454 6.78285,18.25978 -0.23698,25.22265 -4.46773,4.43127 -4.49659,11.64479 -0.0653,16.11252 2.22779,2.24601 5.15741,3.37016 8.08854,3.37016 2.89999,0 5.80227,-1.1006 8.02322,-3.30484 15.93933,-15.81097 16.10415,-41.58126 0.36686,-57.44768 -4.42974,-4.4662 -11.64403,-4.49658 -16.11099,-0.0653 z"
       style="fill:#37bc9b;fill-opacity:1;stroke-width:0.759558" />
    <path
       id="XMLID_1081_"
       d="m 274.45186,95.321808 c -4.43202,-4.468481 -11.64479,-4.496585 -16.11251,-0.06532 -4.46772,4.431263 -4.49659,11.644782 -0.0653,16.112512 17.01866,17.15766 16.79155,45.07599 -0.50663,62.23517 -4.46772,4.43126 -4.49658,11.64479 -0.0653,16.11251 2.22778,2.24601 5.1574,3.37016 8.08853,3.37016 2.9,0 5.80227,-1.1006 8.02322,-3.30484 26.21995,-26.00804 26.50555,-68.38228 0.63803,-94.46019 z"
       style="fill:#37bc9b;fill-opacity:1;stroke-width:0.759558" />
    <path
       id="XMLID_1082_"
       d="m 285.41608,67.092823 c -4.46772,4.431263 -4.49658,11.644789 -0.0653,16.112511 32.34655,32.610116 31.93563,85.651596 -0.91603,118.237406 -4.46772,4.43126 -4.49658,11.64479 -0.0653,16.11251 2.22779,2.24601 5.1574,3.37016 8.08854,3.37016 2.89999,0 5.80226,-1.1006 8.02321,-3.30484 41.77191,-41.43466 42.24132,-108.9313 1.04667,-150.462425 -4.43126,-4.466962 -11.64403,-4.496585 -16.11175,-0.06532 z"
       style="fill:#37bc9b;fill-opacity:1;stroke-width:0.759558" />
  </g>
</svg>
