<?xml version="1.0" encoding="UTF-8" standalone="no"?>
<svg
   xmlns:dc="http://purl.org/dc/elements/1.1/"
   xmlns:cc="http://creativecommons.org/ns#"
   xmlns:rdf="http://www.w3.org/1999/02/22-rdf-syntax-ns#"
   xmlns:svg="http://www.w3.org/2000/svg"
   xmlns="http://www.w3.org/2000/svg"
   xmlns:sodipodi="http://sodipodi.sourceforge.net/DTD/sodipodi-0.dtd"
   xmlns:inkscape="http://www.inkscape.org/namespaces/inkscape"
   inkscape:version="1.0 (4035a4fb49, 2020-05-01)"
   sodipodi:docname="tarjeta-recarga.svg"
   id="svg42"
   version="1.1"
   width="496pt"
   viewBox="0 -64 496 496"
   height="496pt">
  <metadata
     id="metadata48">
    <rdf:RDF>
      <cc:Work
         rdf:about="">
        <dc:format>image/svg+xml</dc:format>
        <dc:type
           rdf:resource="http://purl.org/dc/dcmitype/StillImage" />
      </cc:Work>
    </rdf:RDF>
  </metadata>
  <defs
     id="defs46" />
  <sodipodi:namedview
     inkscape:current-layer="svg42"
     inkscape:window-maximized="1"
     inkscape:window-y="32"
     inkscape:window-x="-8"
     inkscape:cy="330.66667"
     inkscape:cx="330.66667"
     inkscape:zoom="1.250504"
     showgrid="false"
     id="namedview44"
     inkscape:window-height="1017"
     inkscape:window-width="1920"
     inkscape:pageshadow="2"
     inkscape:pageopacity="0"
     guidetolerance="10"
     gridtolerance="10"
     objecttolerance="10"
     borderopacity="1"
     bordercolor="#666666"
     pagecolor="#ffffff" />
  <path
     id="path2"
     fill="#aab2bd"
     d="m416 48h32v32h-32zm0 0" />
  <path
     id="path4"
     fill="#aab2bd"
     d="m48 48h32v32h-32zm0 0" />
  <path
     id="path6"
     fill="#ccd1d9"
     d="m496 16v96c0 8.800781-7.199219 16-16 16h-64v-48h32v-32h-400v32h32v48h-64c-8.800781 0-16-7.199219-16-16v-96c0-8.800781 7.199219-16 16-16h464c8.800781 0 16 7.199219 16 16zm0 0" />
  <path
     transform="matrix(0.75000002,0,0,0.75000002,0,-64)"
     d="M 106.66602 149.33398 L 106.66602 533.33398 C 106.66602 556.9069 125.76107 576 149.33398 576 L 512 576 C 535.57292 576 554.66602 556.9069 554.66602 533.33398 L 554.66602 149.33398 L 234.66602 149.33398 L 106.66602 149.33398 z "
     style="fill:#ac92ec;fill-opacity:1;stroke-width:1.60823"
     id="path8" />
  <path
     id="path34"
     fill="#967adc"
     d="m 343.0133,327.40024 c -4.42578,0 -8,-3.57422 -8,-8 v -56 c 0,-4.42578 3.57422,-8 8,-8 4.42578,0 8,3.57422 8,8 v 56 c 0,4.42578 -3.57422,8 -8,8 z m 0,0" />
  <path
     id="path36"
     fill="#967adc"
     d="m 336.31923,171.59855 c 0,4.42578 3.57422,8 8,8 4.42578,0 8,-3.57422 8,-8 V 51.598549 h -16 z m 0,0" />
  <path
     id="path38"
     fill="#967adc"
     d="m 335.93229,220.77872 c 0,4.42578 3.57422,8 8,8 4.42578,0 8,-3.57422 8,-8 v -120 h -16 z m 0,0" />
  <path
     id="path40"
     fill="#967adc"
     d="m80 48h336v16h-336zm0 0" />
  <g
     style="fill:#967adc;fill-opacity:1"
     id="g114"
     transform="rotate(-90,303.62088,249.85695)">
    <path
       style="fill:#967adc;fill-opacity:1;stroke-width:0.759558"
       d="m 226.38245,113.92415 c -4.46772,4.43126 -4.49658,11.64479 -0.0653,16.11251 6.88843,6.9454 6.78285,18.25978 -0.23698,25.22265 -4.46773,4.43127 -4.49659,11.64479 -0.0653,16.11252 2.22779,2.24601 5.15741,3.37016 8.08854,3.37016 2.89999,0 5.80227,-1.1006 8.02322,-3.30484 15.93933,-15.81097 16.10415,-41.58126 0.36686,-57.44768 -4.42974,-4.4662 -11.64403,-4.49658 -16.11099,-0.0653 z"
       id="XMLID_1080_" />
    <path
       style="fill:#967adc;fill-opacity:1;stroke-width:0.759558"
       d="m 274.45186,95.321808 c -4.43202,-4.468481 -11.64479,-4.496585 -16.11251,-0.06532 -4.46772,4.431263 -4.49659,11.644782 -0.0653,16.112512 17.01866,17.15766 16.79155,45.07599 -0.50663,62.23517 -4.46772,4.43126 -4.49658,11.64479 -0.0653,16.11251 2.22778,2.24601 5.1574,3.37016 8.08853,3.37016 2.9,0 5.80227,-1.1006 8.02322,-3.30484 26.21995,-26.00804 26.50555,-68.38228 0.63803,-94.46019 z"
       id="XMLID_1081_" />
    <path
       style="fill:#967adc;fill-opacity:1;stroke-width:0.759558"
       d="m 285.41608,67.092823 c -4.46772,4.431263 -4.49658,11.644789 -0.0653,16.112511 32.34655,32.610116 31.93563,85.651596 -0.91603,118.237406 -4.46772,4.43126 -4.49658,11.64479 -0.0653,16.11251 2.22779,2.24601 5.1574,3.37016 8.08854,3.37016 2.89999,0 5.80226,-1.1006 8.02321,-3.30484 41.77191,-41.43466 42.24132,-108.9313 1.04667,-150.462425 -4.43126,-4.466962 -11.64403,-4.496585 -16.11175,-0.06532 z"
       id="XMLID_1082_" />
  </g>
</svg>
