<svg id="icons" enable-background="new 0 0 64 64" height="512" viewBox="0 0 64 64" width="512" xmlns="http://www.w3.org/2000/svg"><g><g><path d="m9 58h36.01v-5.01h4c1.09 0 1.99.9 1.99 2v6.01c0 1.1-.9 2-2 2h-44c-1.1 0-2-.9-2-2v-6.01c0-1.1.9-2 2-2s4 0 4 0z" fill="#656d78"/></g><g><path d="m46.01 59h-38.02c-.55 0-1-.45-1-1s.45-1 1-1h38.01c.55 0 1 .45 1 1s-.44 1-.99 1z" fill="#545c66"/></g><g><path d="m16 7h5v3h-5z" fill="#ccd1d9"/></g><g><path d="m33 7h5v3h-5z" fill="#ccd1d9"/></g><g><path d="m38 32h-22v-22h5 6 6 5zm-11-19c-4.42 0-8 3.58-8 8s3.58 8 8 8 8-3.58 8-8-3.58-8-8-8z" fill="#ccd1d9"/></g><g><path d="m32 21c0-2.76-2.24-5-5-5s-5 2.24-5 5 2.24 5 5 5 5-2.24 5-5zm-5-8c4.42 0 8 3.58 8 8s-3.58 8-8 8-8-3.58-8-8 3.58-8 8-8z" fill="#e6e9ed"/></g><g><path d="m45.01 23v30.99 5.01h-36.01v-5.01-48.99c0-2.21 1.79-4 4-4h36c-2.21 0-3.99 1.79-3.99 4zm-7.01 9v-22-3h-5-6-6-5v3 22z" fill="#e6e9ed"/></g><g><path d="m21 7h6c-.83 0-1.5.67-1.5 1.5s.67 1.5 1.5 1.5h-6z" fill="#ccd1d9"/></g><g><path d="m57.01 23h-12v-18c0-2.21 1.78-4 3.99-4s4 1.79 4 4v9 5h.01c0 2.21 1.79 4 4 4z" fill="#ccd1d9"/></g><g><circle cx="27" cy="21" fill="#5d9cec" r="5"/></g><g><path d="m61 14v5c0 2.21-1.79 4-3.99 4-2.21 0-4-1.79-4-4h-.01v-5l2-2 2 2h.01l1.99-2z" fill="#e6e9ed"/></g><g><circle cx="27" cy="8.5" fill="#e6e9ed" r="1.5"/></g><g><path d="m28.5 8.5c0-.83-.67-1.5-1.5-1.5h6v3h-6c.83 0 1.5-.67 1.5-1.5z" fill="#ccd1d9"/></g><g><path d="m40.01 46.02h-3c-.55 0-1-.45-1-1s.45-1 1-1h3c.55 0 1 .45 1 1s-.45 1-1 1z" fill="#ccd1d9"/></g><g><path d="m19 46.02h-5c-.55 0-1-.45-1-1s.45-1 1-1h5c.55 0 1 .45 1 1s-.45 1-1 1z" fill="#ccd1d9"/></g><g><path d="m40.01 42.02h-3c-.55 0-1-.45-1-1s.45-1 1-1h3c.55 0 1 .45 1 1s-.45 1-1 1z" fill="#ccd1d9"/></g><g><path d="m24 42.02h-10c-.55 0-1-.45-1-1s.45-1 1-1h10c.55 0 1 .45 1 1s-.45 1-1 1z" fill="#ccd1d9"/></g><g><path d="m40.01 50.02h-3c-.55 0-1-.45-1-1s.45-1 1-1h3c.55 0 1 .45 1 1s-.45 1-1 1z" fill="#ccd1d9"/></g><g><path d="m25 50.02h-11c-.55 0-1-.45-1-1s.45-1 1-1h11c.55 0 1 .45 1 1s-.44 1-1 1z" fill="#ccd1d9"/></g><g><path d="m40.01 37.99h-26.01c-.55 0-1-.45-1-1s.45-1 1-1h26.01c.55 0 1 .45 1 1s-.45 1-1 1z" fill="#fff"/></g><g><path d="m40.01 54.01h-3c-.55 0-1-.45-1-1s.45-1 1-1h3c.55 0 1 .45 1 1s-.45 1-1 1z" fill="#ccd1d9"/></g><g><path d="m16.99 54.01h-3c-.55 0-1-.45-1-1s.45-1 1-1h3c.55 0 1 .45 1 1s-.44 1-1 1z" fill="#ccd1d9"/></g><g fill="#aab2bd"><path d="m16 9.96h22v1h-22z"/><path d="m20.53 7.04h.98v2.92h-.98z"/><path d="m32.51 7.04h.98v2.92h-.98z"/></g></g></svg>