<svg id="icons" enable-background="new 0 0 64 64" height="512" viewBox="0 0 64 64" width="512" xmlns="http://www.w3.org/2000/svg"><g><g><g><g><g><g><g><path d="m.5 13.98h48v36h-48z" fill="#e6e9ed"/><g><g><path d="m48.5 49.97v3.02h-.03-47.97v-3.02h47.97z" fill="#ccd1d9"/></g><g><path d="m48.47 55.99-47.97.02v-3.02h47.97.03v3z" fill="#ccd1d9"/></g><g><path d="m.5 50.97h48v1h-48z" fill="#e6e9ed"/></g><g><path d="m.5 52.99h48v1h-48z" fill="#e6e9ed"/></g><g><path d="m.5 55.01h48v1h-48z" fill="#e6e9ed"/></g></g><g><path d="m48.5 7.98v6h-48v-6c0-1.11.9-2 2-2h4v2.5c0 .83.67 1.5 1.5 1.5s1.5-.67 1.5-1.5v-2.5h8v2.5c0 .83.67 1.5 1.5 1.5s1.5-.67 1.5-1.5v-2.5h8v2.5c0 .83.67 1.5 1.5 1.5s1.5-.67 1.5-1.5v-2.5h8v2.5c0 .83.67 1.5 1.5 1.5s1.5-.67 1.5-1.5v-2.5h4c1.11 0 2 .89 2 2z" fill="#ed5565"/></g><g><path d="m4.5 41.98h4v4h-4z" fill="#fff"/></g><g><path d="m22.5 41.98h4v4h-4z" fill="#fff"/></g><g><path d="m22.5 33.98h4v4h-4z" fill="#fff"/></g><g><path d="m13.5 41.98h4v4h-4z" fill="#fff"/></g><g><path d="m4.5 25.98h4v4h-4z" fill="#fff"/></g><g><path d="m4.5 33.98h4v4h-4z" fill="#fff"/></g><g><path d="m13.5 33.98h4v4h-4z" fill="#fff"/></g><g><path d="m31.5 25.98h4v4h-4z" fill="#fff"/></g><g><path d="m31.52 33.98h4v4h-4z" fill="#fff"/></g><g><path d="m13.5 17.98h4v4h-4z" fill="#fff"/></g><g><path d="m13.5 25.98h4v4h-4z" fill="#fff"/></g><g><path d="m31.5 17.98h4v4h-4z" fill="#fff"/></g><g><path d="m22.5 25.98h4v4h-4z" fill="#fff"/></g><g><path d="m40.5 25.98h4v4h-4z" fill="#fff"/></g><g><path d="m22.5 17.98h4v4h-4z" fill="#fff"/></g><g><path d="m40.5 17.98h4v4h-4z" fill="#fff"/></g><g><path d="m4.5 17.98h4v4h-4z" fill="#fff"/></g><g><path d="m8.5 22.98h-4c-.55 0-1-.45-1-1v-4c0-.55.45-1 1-1h4c.55 0 1 .45 1 1v4c0 .55-.45 1-1 1zm-3-2h2v-2h-2z" fill="#fff"/></g><g><path d="m17.5 22.98h-4c-.55 0-1-.45-1-1v-4c0-.55.45-1 1-1h4c.55 0 1 .45 1 1v4c0 .55-.45 1-1 1zm-3-2h2v-2h-2z" fill="#fff"/></g><g><path d="m26.5 22.98h-4c-.55 0-1-.45-1-1v-4c0-.55.45-1 1-1h4c.55 0 1 .45 1 1v4c0 .55-.45 1-1 1zm-3-2h2v-2h-2z" fill="#fff"/></g><g><path d="m35.5 22.98h-4c-.55 0-1-.45-1-1v-4c0-.55.45-1 1-1h4c.55 0 1 .45 1 1v4c0 .55-.45 1-1 1zm-3-2h2v-2h-2z" fill="#fff"/></g><g><path d="m8.5 30.98h-4c-.55 0-1-.45-1-1v-4c0-.55.45-1 1-1h4c.55 0 1 .45 1 1v4c0 .55-.45 1-1 1zm-3-2h2v-2h-2z" fill="#fff"/></g><g><path d="m17.5 30.98h-4c-.55 0-1-.45-1-1v-4c0-.55.45-1 1-1h4c.55 0 1 .45 1 1v4c0 .55-.45 1-1 1zm-3-2h2v-2h-2z" fill="#fff"/></g><g><path d="m26.5 30.98h-4c-.55 0-1-.45-1-1v-4c0-.55.45-1 1-1h4c.55 0 1 .45 1 1v4c0 .55-.45 1-1 1zm-3-2h2v-2h-2z" fill="#fff"/></g><g><path d="m8.5 38.98h-4c-.55 0-1-.45-1-1v-4c0-.55.45-1 1-1h4c.55 0 1 .45 1 1v4c0 .55-.45 1-1 1zm-3-2h2v-2h-2z" fill="#fff"/></g><g><path d="m17.5 38.98h-4c-.55 0-1-.45-1-1v-4c0-.55.45-1 1-1h4c.55 0 1 .45 1 1v4c0 .55-.45 1-1 1zm-3-2h2v-2h-2z" fill="#fff"/></g><g><path d="m26.5 38.98h-4c-.55 0-1-.45-1-1v-4c0-.55.45-1 1-1h4c.55 0 1 .45 1 1v4c0 .55-.45 1-1 1zm-3-2h2v-2h-2z" fill="#fff"/></g><g><path d="m35.52 38.98h-4c-.55 0-1-.45-1-1v-4c0-.55.45-1 1-1h4c.55 0 1 .45 1 1v4c0 .55-.45 1-1 1zm-3-2h2v-2h-2z" fill="#fff"/></g><g><path d="m31.52 41.98h4v4h-4z" fill="#fff"/></g><g><path d="m35.52 46.98h-4c-.55 0-1-.45-1-1v-4c0-.55.45-1 1-1h4c.55 0 1 .45 1 1v4c0 .55-.45 1-1 1zm-3-2h2v-2h-2z" fill="#fff"/></g><g><path d="m40.58 41.98h4v4h-4z" fill="#fff"/></g><g><path d="m44.58 46.98h-4c-.55 0-1-.45-1-1v-4c0-.55.45-1 1-1h4c.55 0 1 .45 1 1v4c0 .55-.45 1-1 1zm-3-2h2v-2h-2z" fill="#fff"/></g><g><path d="m40.52 33.98h4v4h-4z" fill="#fff"/></g><g><path d="m44.52 38.98h-4c-.55 0-1-.45-1-1v-4c0-.55.45-1 1-1h4c.55 0 1 .45 1 1v4c0 .55-.44 1-1 1zm-3-2h2v-2h-2z" fill="#fff"/></g><g><path d="m8.5 46.98h-4c-.55 0-1-.45-1-1v-4c0-.55.45-1 1-1h4c.55 0 1 .45 1 1v4c0 .55-.45 1-1 1zm-3-2h2v-2h-2z" fill="#fff"/></g><g><path d="m17.5 46.98h-4c-.55 0-1-.45-1-1v-4c0-.55.45-1 1-1h4c.55 0 1 .45 1 1v4c0 .55-.45 1-1 1zm-3-2h2v-2h-2z" fill="#fff"/></g><g><path d="m26.5 46.98h-4c-.55 0-1-.45-1-1v-4c0-.55.45-1 1-1h4c.55 0 1 .45 1 1v4c0 .55-.45 1-1 1zm-3-2h2v-2h-2z" fill="#fff"/></g><g><path d="m35.5 30.98h-4c-.55 0-1-.45-1-1v-4c0-.55.45-1 1-1h4c.55 0 1 .45 1 1v4c0 .55-.45 1-1 1zm-3-2h2v-2h-2z" fill="#fff"/></g><g><path d="m44.5 30.98h-4c-.55 0-1-.45-1-1v-4c0-.55.45-1 1-1h4c.55 0 1 .45 1 1v4c0 .55-.45 1-1 1zm-3-2h2v-2h-2z" fill="#fff"/></g><g><path d="m44.5 22.98h-4c-.55 0-1-.45-1-1v-4c0-.55.45-1 1-1h4c.55 0 1 .45 1 1v4c0 .55-.45 1-1 1zm-3-2h2v-2h-2z" fill="#fff"/></g><g><g><path d="m10.49 9.48c0 1.38-1.12 2.5-2.5 2.5s-2.5-1.12-2.5-2.5 1.12-2.5 2.5-2.5 2.5 1.12 2.5 2.5z" fill="#da4453"/></g><g><path d="m21.49 9.48c0 1.38-1.12 2.5-2.5 2.5s-2.5-1.12-2.5-2.5 1.12-2.5 2.5-2.5 2.5 1.12 2.5 2.5z" fill="#da4453"/></g><g><path d="m32.5 9.48c0 1.38-1.12 2.5-2.5 2.5s-2.5-1.12-2.5-2.5 1.12-2.5 2.5-2.5 2.5 1.12 2.5 2.5z" fill="#da4453"/></g><g><path d="m43.5 9.48c0 1.38-1.12 2.5-2.5 2.5s-2.5-1.12-2.5-2.5 1.12-2.5 2.5-2.5 2.5 1.12 2.5 2.5z" fill="#da4453"/></g></g><g><g><path d="m9.5 5.98v3.5c0 .83-.67 1.5-1.5 1.5s-1.5-.67-1.5-1.5v-3.5-2.5c0-.83.67-1.5 1.5-1.5s1.5.67 1.5 1.5z" fill="#e6e9ed"/></g><g><path d="m31.5 5.98v3.5c0 .83-.67 1.5-1.5 1.5s-1.5-.67-1.5-1.5v-3.5-2.5c0-.83.67-1.5 1.5-1.5s1.5.67 1.5 1.5z" fill="#e6e9ed"/></g><g><path d="m20.5 5.98v3.5c0 .83-.67 1.5-1.5 1.5s-1.5-.67-1.5-1.5v-3.5-2.5c0-.83.67-1.5 1.5-1.5s1.5.67 1.5 1.5z" fill="#e6e9ed"/></g><g><path d="m42.5 5.98v3.5c0 .83-.67 1.5-1.5 1.5s-1.5-.67-1.5-1.5v-3.5-2.5c0-.83.67-1.5 1.5-1.5s1.5.67 1.5 1.5z" fill="#e6e9ed"/></g></g></g></g></g></g></g></g><g><g><path d="m41.5 38.02h4v4h-4z" fill="#e6e9ed"/></g><g><path d="m22.49 33.98h4v4h-4z" fill="#fff"/></g><g><path d="m55.5 56.02v-14-4h-4-6-4v4 14zm7.01-9.02c0 7.74-6.28 14.02-14.02 14.02-4.32 0-8.18-1.96-10.75-5.03-.77-.91-1.41-1.91-1.93-2.99-.45-.95-.79-1.97-1.02-3.02-.21-.96-.32-1.96-.32-2.98 0-.34.01-.69.04-1.02.1-1.4.4-2.75.89-4 2.02-5.26 7.12-8.99 13.09-8.99h.02c7.73.01 14 6.28 14 14.01z" fill="#656d78"/></g><g><path d="m22.49 41.98h4v4h-4z" fill="#fff"/></g><g><path d="m52.5 49.02c0-2.21-1.79-4-4-4s-4 1.79-4 4 1.79 4 4 4 4-1.79 4-4zm3-7v14h-14v-14h4 6z" fill="#e6e9ed"/></g><g><path d="m51.5 38.02h4v4h-4z" fill="#e6e9ed"/></g><g><path d="m45.5 38.02h6v4h-6z" fill="#e6e9ed"/></g><g><circle cx="48.5" cy="49.02" fill="#5d9cec" r="4"/></g></g><g><path d="m48.49 62.02c-8.28 0-15.02-6.74-15.02-15.02s6.74-15.02 15.02-15.02 15.01 6.74 15.01 15.02-6.73 15.02-15.01 15.02zm0-28.04c-7.18 0-13.02 5.84-13.02 13.02s5.84 13.02 13.02 13.02 13.01-5.84 13.01-13.02-5.84-13.02-13.01-13.02z" fill="#656d78"/></g><g><path d="m48.5 54.01c-2.76 0-5-2.24-5-5s2.24-5 5-5 5 2.24 5 5-2.25 5-5 5zm0-8c-1.65 0-3 1.35-3 3s1.35 3 3 3 3-1.35 3-3-1.35-3-3-3z" fill="#fff"/></g><g fill="#ccd1d9"><path d="m41.5 42.01h14v1h-14z"/><path d="m45.02 37.98h1v4h-1z"/><path d="m51 37.98h1v4h-1z"/></g></g></svg>