<svg id="icons" enable-background="new 0 0 64 64" height="512" viewBox="0 0 64 64" width="512" xmlns="http://www.w3.org/2000/svg"><g><g><path d="m36 6-.6 3h-3.4v-3z" fill="#dda576"/></g><g><path d="m40 9-2 4 2 3-8 10 2.8-14 .6-3 .6-3z" fill="#ffd2a6"/></g><g><path d="m43 42h5v3h-5z" fill="#965353"/></g><g><path d="m34.8 12-2.8 14-2.8-14z" fill="#dda576"/></g><g><path d="m28 6h4v3h-3.4z" fill="#dda576"/></g><g><path d="m29.2 12 2.8 14-8-10 2-3-2-4 4-3 .6 3z" fill="#ffd2a6"/></g><g><path d="m16 42h5v3h-5z" fill="#965353"/></g><g><path d="m24 9 2 4-2 3 8 10-4 5v29h-7v-15-3h-5v-27c0-3.32 2.68-6 6-6z" fill="#dda576"/></g><g><path d="m22 6h6l-4 3h-2c-3.32 0-6 2.68-6 6v27 3h5v15 3h-8v-48c0-4.97 4.02-9 9-9z" fill="#545c66"/></g><g><path d="m43 45v15h-15v-29l4-5 8-10-2-3 2-4h2c3.32 0 6 2.68 6 6v27h-5z" fill="#f7c292"/></g><g><path d="m40 9-4-3h6c4.98 0 9 4.03 9 9v48h-30v-3h7 15v-15h5v-3-27c0-3.32-2.68-6-6-6z" fill="#545c66"/></g><path d="m44 24c-.55 0-1 .45-1 1v17h2v-17c0-.55-.45-1-1-1z" fill="#dda576"/><g><path d="m32.02 36c-.55 0-1-.45-1-1s.44-1 1-1h.01c.55 0 1 .45 1 1s-.46 1-1.01 1z" fill="#ffd2a6"/></g><g><path d="m32.02 43c-.55 0-1-.45-1-1s.44-1 1-1h.01c.55 0 1 .45 1 1s-.46 1-1.01 1z" fill="#ffd2a6"/></g><g><path d="m32.02 50c-.55 0-1-.45-1-1s.44-1 1-1h.01c.55 0 1 .45 1 1s-.46 1-1.01 1z" fill="#ffd2a6"/></g><g><path d="m32 8c-.27 0-.53-.1-.73-.31-.38-.4-.36-1.03.04-1.41.85-.81 1.67-1.92 1.69-2.28 0-.55-.45-1-1-1s-1 .45-1 1-.45 1-1 1-1-.45-1-1c0-1.65 1.35-3 3-3s3 1.35 3 3c0 1.42-1.77 3.21-2.31 3.73-.2.18-.44.27-.69.27z" fill="#545c66"/></g><g><path d="m32 11c-.55 0-1-.45-1-1v-3c0-.55.45-1 1-1 .55 0 1 .45 1 1v3c0 .55-.45 1-1 1z" fill="#545c66"/></g><g><path d="m28.6 9h3.4 3.4l-.6 3h-5.6z" fill="#656d78"/></g><path d="m43 42h2v3h-2z" fill="#844747"/><path d="m20 24c-.55 0-1 .45-1 1v17h2v-17c0-.55-.45-1-1-1z" fill="#c99167"/><path d="m19 42h2v3h-2z" fill="#844747"/></g></svg>